<svg version="1.2" xmlns="http://www.w3.org/2000/svg" viewBox="0 0 1077 129" width="4275" height="512">
	<title>New Project</title>
	<style>
		.s0 { fill: #020102 } 
		.s1 { fill: #f5eed8 } 
		.s2 { fill: #b9a662 } 
		.s3 { fill: #f0e9d4 } 
		.s4 { fill: #efe9d3 } 
		.s5 { fill: #050405 } 
		.s6 { fill: #a19871 } 
		.s7 { fill: #efe8d1 } 
		.s8 { fill: #cde4c8 } 
		.s9 { fill: #cde4c9 } 
		.s10 { fill: #cce4c8 } 
		.s11 { fill: #f1ead3 } 
		.s12 { fill: #cde5c9 } 
		.s13 { fill: #cde5ca } 
		.s14 { fill: #ebe5d0 } 
		.s15 { fill: #f2ebd4 } 
		.s16 { fill: #b7a563 } 
		.s17 { fill: #b8a563 } 
		.s18 { fill: #bba762 } 
		.s19 { fill: #f0e9d2 } 
		.s20 { fill: #f1ead4 } 
		.s21 { fill: #f1ead2 } 
		.s22 { fill: #e9e3cc } 
		.s23 { fill: #b9a563 } 
		.s24 { fill: #ece5ce } 
		.s25 { fill: #efe8d2 } 
		.s26 { fill: #efe9d2 } 
		.s27 { fill: #ede6cf } 
		.s28 { fill: #f3ecd6 } 
		.s29 { fill: #f3edd6 } 
		.s30 { fill: #f3ecd5 } 
		.s31 { fill: #d5d0bb } 
		.s32 { fill: #d6d1bc } 
		.s33 { fill: #d6d1bb } 
		.s34 { fill: #f3ebd5 } 
		.s35 { fill: #d7d1bb } 
		.s36 { fill: #ebe4cd } 
		.s37 { fill: #e5dfc5 } 
		.s38 { fill: #e7e1c7 } 
		.s39 { fill: #e7e0c7 } 
		.s40 { fill: #e6e1c9 } 
		.s41 { fill: #5793a2 } 
		.s42 { fill: #5993a1 } 
		.s43 { fill: #f5efd9 } 
		.s44 { fill: #5893a2 } 
		.s45 { fill: #5793a3 } 
		.s46 { fill: #5693a2 } 
		.s47 { fill: #5693a3 } 
		.s48 { fill: #f2ebd5 } 
		.s49 { fill: #f2ecd6 } 
		.s50 { fill: #f4edd6 } 
		.s51 { fill: #5b92a0 } 
		.s52 { fill: #cadec3 } 
		.s53 { fill: #cbe0c5 } 
		.s54 { fill: #cbdfc3 } 
		.s55 { fill: #cbdfc4 } 
		.s56 { fill: #e9e2cb } 
		.s57 { fill: #e8e1c9 } 
		.s58 { fill: #eae3ca } 
		.s59 { fill: #e9e2c9 } 
		.s60 { fill: #ebe3cb } 
		.s61 { fill: #ece4cc } 
		.s62 { fill: #b2a267 } 
		.s63 { fill: #b6a464 } 
		.s64 { fill: #61919b } 
		.s65 { fill: #f4eed8 } 
		.s66 { fill: #ddd7c0 } 
		.s67 { fill: #d9d0af } 
		.s68 { fill: #d9d1af } 
		.s69 { fill: #659199 } 
		.s70 { fill: #e1dbc4 } 
		.s71 { fill: #e6dec3 } 
		.s72 { fill: #dad1b1 } 
		.s73 { fill: #afaf9c } 
	</style>
	<g id="Layer 1">
		<g id="Layer 1">
			<path id="Layer" fill-rule="evenodd" class="s0" d="m0 0.7h1073.3v126.9h-1073.3z"/>
			<path id="Layer" fill-rule="evenodd" class="s1" d="m321.8 13.8h432.9l4.2 2.1 3.1 3.7 1.6 3.7 11 2.1 7.8 3.1 6.3 3.7 6.3 5.8 4.2 5.2 3.7 8.4 1.5 8.4v6.8l-1.5 7.8-2.6 6.3-3.7 5.8-5.8 5.8-7.3 4.7-7.4 3.1-6.8 1.6h-5.7l-0.6 3.1-2.6 5.3-3.6 3.1-3.7 1.1h-156.2l-275.6-0.6-3.2-2-3.1-3.7-2.1-5.8-10-1.6-6.3-2.1-7.8-4.1-7.4-6.3-4.7-6.8-2.6-5.8-1.6-6.3v-12.6l1.6-6.8 3.7-7.3 4.1-5.3 3.7-3.6 7.4-4.8 5.7-2.6 7.4-2.1 6.2-0.5 3.2-5.8 3.7-3.1z"/>
			<path id="Layer" fill-rule="evenodd" class="s2" d="m486.3 2.8h95.4l175.6 0.6 4.7 1 4.7 3.7 3.7 4.7 1 1.6 10 2.1 9.9 3.6 2.1 0.6h4.8l8.3-2.1h1.6l1.1 4.7-1.1 3.7-2.1 2.6-3.7 2.1h-1l3.7 4.2 3.6 5.7 2.7 7.4 2.1 4.2 3.6 1.5h3.7l3.1-2.1 2.1-3.1-3.1-0.5-1.6-2.1v-3.2l2.6-2.6h3.2l2.1 1 1.5 4.8-1 7.3-3.1 5.2-3.2 2.7-1.6 1 3.2 2.1 3.1 3.7 2.1 5.2 0.5 5.3-1 3.6-2.6 2.1-4.2-0.5-1.6-2.1v-3.1l2.6-2.7h2.1l-1.5-2.6-2.7-2.1-1-0.5h-4.2l-3.7 2.1-2.1 5.2-2.6 6.8-4.7 6.3-2.1 1.1 2.1 2.1 4.2 3.1 1.6 3.7-0.6 4.7-0.5 1.1-4.7-1.1-4.2-1h-7.9l-6.2 2.6-6.9 3.1h-7.3l-1 3.2-3.7 4.7-4.7 4.2-5.3 1.6-31.4 0.5h-57.7l-77.5-0.5h-263.6l-7.9-0.6-5.2-2.6-4.2-4.7-3.7-5.8h-6.3l-11.5-5.2-1.6-0.5h-8.9l-6.8 2.1h-1.6l-0.5-1.6v-5.8l2.1-3.1 5.2-3.7-4.2-4.2-3.6-6.3-3.2-8.9-2.6-2.1-1.6-0.5h-4.7l-3.6 3.1-0.6 1.6 2.6 1.1 1.6 1.5v3.7l-1.6 2.1-3.6 0.5-2.6-1.5-1.1-1.6v-7.9l2.1-5.2 4.2-4.7 2.6-0.6v-1l-2.6-1.1-2.6-2.1-2.6-4.1-1.1-3.2v-7.9l2.6-3.1h3.7l2.6 2.1v4.2l-1.6 1.6-2.6 0.5 2.1 3.7 3.7 1.5 4.2-0.5 2.1-1 2.6-5.3 2.6-7.3 3.7-5.3 3.1-3.1-4.7-3.2-2.1-2.6-0.5-1v-5.8l1.6-1.6 5.7 2.1 2.7 0.6h4.7l6.8-2.1 9.4-3.2 6.3-1 3.7-5.3 2.6-2.6 3.1-2.1 4.2-1zm-164.5 11l-4.2 2.1-3.2 3.6-2.1 4.2-6.2 0.6-9 2.6-7.8 4.2-5.3 4.2-3.6 3.6-4.7 7.4-2.7 7.3-0.5 3.1v12.6l2.1 7.9 3.7 6.8 4.7 5.8 6.8 5.2 7.9 4.2 7.3 2.1 7.9 1 2.1 5.8 4.2 4.7 2.1 1.1 275.6 0.5h156.2l4.7-1.6 3.7-4.2 2.1-5.2v-1.6h5.7l8.4-2.1 8.4-4.2 5.8-4.2 4.7-4.7 3.7-5.7 2.6-6.3 1.5-7.9v-6.8l-1.5-8.4-3.7-8.4-4.2-5.2-4.2-4.2-7.3-4.7-7.4-3.2-6.8-1.5-5.7-1.1-2.7-5.2-3.6-3.2-2.6-1z"/>
			<path id="Layer" fill-rule="evenodd" class="s0" d="m31.4 8.6l0.6 1.6-1.1 4.2v3.6l1.6 3.2 3.7 3.1 8.3 4.7 5.3 4.8 2.1 1 4.2-3.7 6.3-2.6 2.1-0.5 1.5 2.1v1l2.7 1.1 5.7 1.6v-4.2l1.1-0.6 5.7 2.1 5.8 3.2v5.2l-1.1 3.7-8.3-3.7-4.8-1h-6.2l-5.8 1.6-6.3 3.1-3.1 2.6 2.6-1 5.2-3.2 5.8-2.1h9.4l6.8 2.6 4.2 2.1-1.5 4.2-3.7 4.8-4.2 3.1-1.1 1 5.3-3.1 3.1-3.7 3.2-6.3 1-3.6 0.5-7.9-1-4.7-1.1-2.6-5.7-1.6-3.7 0.5-2.1 2.1-1 5.8-4.2-0.5-2.6-2.1-1.1-4.2 1.1-3.7-2.1 1.1-5.8 0.5-4.2-1.1-4.2-3.1-3.7-5.8 0.6-1 8.9 2.1 23 1 5.8 2.1 4.7 3.7 2.1 2.1 2.1-1.1 5.8-4.2 5.7-2.6 3.2-0.5 20.4-0.5 12.1-2.1 1.5-0.5-0.5 3.1-3.6 5.2-3.7 3.2-4.2 1.6 3.1-0.6 4.8-3.1 3.1-3.7h1l3.2 4.2 4.2 2.6 3.7 1.1h6.8l0.5 8.4-2.1 1-2.1-0.5-4.7-0.5-3.2 1.5-1.5 2.7v5.7l-3.2 2.1-1 1.6v5.2l1 2.7 2.6 1 3.2 3.7 2.6 3.1 1.1 1.1-3.7 3.6-3.2 4.2-3.1 2.6-0.5 1.1v5.2l2.1 2.1 2.1 1.1v6.3l2.1 3.1 3.1 1.1 3.7-0.6 2.6-0.5 2.1 1.1-0.5 8.3h-7.4l-5.2 2.1-3.7 3.2-1.6 2.6-1.5-0.5-2.6-3.7-4.2-2.6-3.2-1.1h-6.3l7.9 1.1 4.2 2.6 4.2 4.7 1.5 3.2v1.5l-13.6-2.1-18.8-0.5-5.8-1-6.3-3.2-5.2-4.7h-1.1l-3.1 3.7-6.3 3.7-3.7 1-22.5 1-7.4 1.6h-2.1l1.1-2.6 2.1-3.1 3.7-3.2 4.1-1.6h4.8l4.2 1.1-1.1-4.7 1.1-2.7 2.6-2 1-0.6h3.2l1.5 6.3 1.6 1.6 3.7 0.5 4.7-1.6 2.1-2.6v-4.7l-3.7 0.5-6.3 2.6-2.6-0.5v-3.6l-5.7 1.5-2.7 1.6-1 2.1-3.7-0.5-4.7-2.1-4.2-3.2h-2.1l-3.7 3.7-6.8 4.2-5.2 3.1-2.1 1.1-1.1 2.6-0.5 1.6v3.6l1.1 5.3-2.7-1.1-4.1-3.1-2.7-5.2-0.5-2.1v-4.2l2.1-4.2 4.2-3.2 7.9-1 4.2-1.6 0.5-1-6.3 2.1-5.8 0.5-3.6-1.1-3.2-2.6-2.1-4.7-0.5-2.1v-5.8l1.6-3.1 1.5-1.6 4.8-1 2.6 1 1.5 1.6v1l-2.6 1.6-1 2.6 0.5 3.2 2.1 2.1 1 0.5h3.7l2.6-1.6 1.6-4.7-0.5-5.2-2.1-5.8-3.2-4.2-1.5-1.6 3.6-3.6 2.7-5.3 1-5.2-0.5-4.7-2.1-3.2-1.6-0.5h-3.7l-2.6 1.6-1 2.6 0.5 3.1 0.5 1.6 2.1 1.1 0.5 1.5-2.1 1.6-3.1 0.5-4.7-1.5-2.1-4.2v-5.8l2.1-5.8 2.1-2.6 2.6-1.6 5.2-0.5 6.9 1.6 2.6 1-1.6-1.5-5.2-1.6-6.3-0.5-3.2-2.1-2.1-3.7-0.5-1.6v-4.7l2.6-5.2 2.7-2.6 2.6-2.1z"/>
			<path id="Layer" fill-rule="evenodd" class="s2" d="m252.1 9.1l4.2 2.1 3.6 4.2 1.6 3.7v6.3l-1.6 3.1-3.6 3.2-8.4 1-4.7 1.6 1 0.5 4.7-1.6 6.3-0.5 4.2 1.6 3.2 3.7 1.5 4.1v7.4l-2.1 3.1-2.1 1.1h-4.2l-2.6-2.1v-1.1l2.6-2.1 0.6-4.7-1.6-2.6-2.6-1-4.2 0.5-2.1 2.1-1.1 3.1v5.8l2.1 6.3 3.2 4.2 1 2.1-3.1 3.6-2.1 4.2-1.1 4.2v5.8l1.6 3.1 2.6 1.6 4.2-0.5 2.6-2.1 0.6-4.7-1.6-2.7-1.6-1 0.5-1.6 2.7-1 5.2 1 2.1 2.6 0.5 1.6v7.3l-2.1 5.3-2.6 2.6-1.6 1.1-5.7 0.5-8.4-2.1-0.5 1 7.3 1.6 5.2 0.5 3.7 2.6 2.1 4.2v6.3l-2.6 5.3-4.2 3.6-2.6 1.1 0.5-3.7 0.5-4.2-1.5-4.2-3.7-3.1-8.4-4.7-5.2-4.7-1.1-1.1-2.1 0.5-3.7 3.2-6.2 2.6-2.7-0.5-2.1-2.6-4.2-1.6-3.1-0.5v4.1l-4.2-0.5-7.3-3.6-1.1-2.7 1.1-6.3 1-0.5 7.9 3.7 4.7 1h5.2l6.3-1.5 6.3-3.2 3.2-2.6 0.5-1-7.4 4.7-4.7 2.1-2.1 0.5h-8.9l-7.3-2.6-3.7-2.1 0.5-2.6 3.7-5.8 4.2-3.2 0.5-1-4.7 3.1-4.2 5.8-1.6 3.7-1 5.2v8.4l2.1 4.7 3.1 1.6h5.8l2.1-2.1 1.6-5.8 4.2 0.6 2.6 2 0.5 1.6v3.7l-0.5 2.1 4.7-1.1h4.2l4.2 1.6 3.1 2.6 3.7 5.8v0.5l-4.7-0.5-5.3-1.1-7.3-0.5-14.7-0.5-5.2-1.6-5.2-3.6-3.7-3.2-4.7 4.2-7.4 3.7-5.7 1-19.4 0.5-8.9 1.6h-1.6l-1.1-3.6 3.2-4.2 4.2-3.2 3.1-1h6.3l3.2 1-1.1-2.1v-5.7l1.1-1.6 6.2-0.5 3.7 3.1 2.6 1h5.3l2.6-1.5 3.1-5.3 3.2-6.8 4.2-7.8 4.2-5.3 4.2-4.2 5.2-3.1 13.1-5.3 2.1-2.1-3.7 2.1-4.2-0.5-6.2-2.6-4.8-3.1-3.6-5.3-1.1-3.7 7.4-3.6 3.6-1.1h9.5l6.2 2.6 5.3 3.2 2.1 1-2.6-2.6-5.3-3.1-4.7-1.6-3.1-0.5h-6.3l-7.4 2.1-5.2 2.6-1.1-2.6-0.5-5.3 2.6-2.6 5.8-2.6h1.1v-1.1l-6.3 2.7-1.6 1h-1.6l-0.5-1v7.3l1.6 6.3 3.1 5.8 2.1 2.6 5.8 3.6 6.8 2.7v1l-8.4 2.6-6.3-4.2-3.7-3.6-5.2-7.4-7.3-15.2-2.6-3.1-1.1-0.5h-6.3l-3.1 1.5-2.1 2.1h-6.8l-1.1-1.5v-5.8l1.1-2.1-3.7 1.1h-5.2l-5.3-2.1-4.7-4.8-1.1-1.5 0.6-2.7 0.5-1 11.5 1.6 20.5 0.5 5.2 1.6 5.8 3.1 4.7 4.2 2.6-2.6 5.2-3.7 5.3-2.1 23.6-1 9.4-2.1-1 2.6-3.2 4.2-3.7 3.1-6.2 1.1-3.7-0.5v1h6.3l4.7-1.6 4.7-4.2 3.2-4.7 0.5-0.5h12l1.1 1v4.8l-2.1 3.1-5.8 3.7-5.2 3.1-1.1 1.6 5.8-3.7 5.2-3.1 2.7-2.6 1.5-3.7z"/>
			<path id="Layer" fill-rule="evenodd" class="s3" d="m7.3 3.9h305.6l-2.7 2.6h-1v1.1h-1l-1.1 2.6-1.6 1.6h-47.1l-6.3-3.7-2.1-0.5 1 2.6v1.6h-11.5l-0.5-1.1-3.7 1.1h-90.7l-0.5-1.1h-4.2l-0.5 1.1h-91.2l-3.1-1.1-1.1 1.1h-11l0.5-3.2 0.6-1.6-6.3 3.2-2.6 1.6h-5.3v27.2l-1 3.7v6.8l1 3.1v23.1l-1 2.6v7.3l1 3.7v27.3h5.3l3.6 2.1 5.3 2.6-1.1-2.6v-2.1h11l2.1 0.5 2.1-0.5h91.2l0.5 1h4.7v-1h90.7l3.7 0.5 0.5-0.5h11.5l-0.5 2.6v1.6l6.3-3.2 1-1h49.3l5.2 5.7 2.1 2.1h-307.1l-0.5-0.5v-119.5z"/>
			<path id="Layer" fill-rule="evenodd" class="s4" d="m763.6 3.9h306v120.5h-307.1l2.6-2.6 4.2-5.2h49.3l5.8 3.6 2.6 1.1-1.6-3.2v-1.5h11.5l2.1 0.5 2.1-0.5h90.7v1l5.2-0.5 0.6-0.5h90.6l3.7 0.5 0.5-0.5h11.5l-1.5 4.7 6.3-3.2 2.1-1.5h5.7v-27.3l1.1-3.7v-7.8l-1.1-2.6v-22.6l1.1-2.6v-8.4l-1.1-3.1v-26.7h-5.7l-4.8-3.2-3.6-1.6 1.5 4.8h-11.5l-2.1-0.6-2.1 0.6h-90.6l-1.1-1.1h-4.7v1.1h-90.1l-4.2-0.6-0.6 0.6h-11.5l1.6-4.8-7.4 3.7-1 1.1h-47.7l-5.8-6.3z"/>
			<path id="Layer" fill-rule="evenodd" class="s2" d="m1044.5 9.1l3.1 1.1 4.2 3.6 2.6 5.8v5.3l-2.1 4.1-3.1 2.7-8.4 1-4.7 1.6 1 0.5 4.7-1.6 6.3-0.5 4.2 1.6 3.2 3.7 1.5 4.1v7.4l-1.5 3.1-4.2 2.1-4.2-0.5-2.1-2.6 2.6-2.1 1.1-2.1-0.6-4.2-2.1-1.6-4.7-0.5-2.1 1-1.5 3.2v7.3l2.1 5.3 2 3.1 2.7 2.6v1.1l-1.6 0.5-3.1 4.7-2.1 5.8v6.8l1.5 3.1 2.1 1.1 4.7-0.5 2.1-2.1 0.6-3.7-1.6-2.6-2.1-2.1 2.6-2.1 3.2-0.5 4.1 1.5 1.6 2.1 0.5 1.6v6.8l-2.1 5.8-3.6 3.1-3.2 1.1-6.8-0.5-5.7-2.1 1.5 1.5 5.8 1.6 5.2 0.5 3.2 2.1 2.1 2.6 1 2.1v5.8l-3.1 6.3-4.7 3.7-2.1 0.5 1-4.2v-5.8l-2.1-3.1-5.7-3.7-6.9-4.2-3.6-3.1-1.1-1.6-2.1 0.5-3.6 3.2-6.3 2.6-2.6-0.5-2.1-2.6-4.8-1.6-2.6-0.5v4.1l-4.2-0.5-7.3-3.6-1.1-1.1 0.6-6.8 0.5-1.6 2.6 1.1 8.4 3.1 2.6 0.5h4.7l6.8-1.5 6.9-3.7 2.6-2.6-6.8 4.2-4.8 2.1-2.6 0.5h-8.4l-7.3-2.6-3.7-2.1 0.6-3.2 3.6-5.2 3.2-2.6 5.2-2.7h1.1v-1l-5.3 2.1-4.7 3.7-3.7 5.2-2.1 5.2-0.5 2.7v9.9l2.1 4.2 3.2 1.6h5.7l2.1-2.1 1.1-5.8 4.7 0.6 2.6 2.6 0.5 4.2-0.5 2.6 4.2-1.1h4.7l5.3 2.7 4.1 4.7 1.1 3.1-4.2-0.5-5.8-1.1-7.3-0.5-14.2-0.5-5.2-1.6-4.7-3.1-3.7-3.7-1-0.5-1.1 2.1-6.8 4.7-5.2 2.1-4.2 0.5-19.4 0.5-9.4 1.6-3.7 0.5 1.6-4.7 4.7-5.2 4.2-2.1 1.5-0.5h6.3l2.7 0.5-0.6-1.6v-6.3l2.6-4.7 2.7-2.1 2.1 5.3 2.1 2.6 3.6 1.5h5.8l2.6-1.5 4.2-8.4 5.2-10 4.2-5.7 2.7-3.2 4.2-3.1 7.3-3.7 7.9-3.1 3.6-2.1-1.6 0.5-2 1-4.2-0.5-6.9-2.6-4.7-3.7-3.6-5.7-0.6-2.7 7.4-3.6 3.1-1.1 5.3-0.5 6.2 1.1 8.4 4.1 2.1 1.6 0.6-0.5-4.2-3.2-5.8-2.6-5.2-1h-5.8l-7.3 2.1-4.8 2.6h-1l-1.1-4.7v-3.7l2.7-2.1 6.8-3.1 3.1-0.6v4.8l6.8-2.1 2.1-1.1 1.1-2.1 3.6 0.5 6.3 3.2 2.7 2.6 1.5 0.5 1.1-2.1 4.7-4.2 9.9-5.7 3.2-3.7 0.5-1v-5.3z"/>
			<path id="Layer" fill-rule="evenodd" class="s2" d="m31.4 8.6l0.6 1.6-1.1 4.2v3.6l1.6 3.2 3.7 3.1 8.3 4.7 5.3 4.8 2.1 1 4.2-3.7 6.3-2.6 2.1-0.5 1.5 2.1v1l2.7 1.1 5.7 1.6v-4.2l1.1-0.6 5.7 2.1 5.8 3.2v5.2l-1.1 3.7-8.3-3.7-4.8-1h-6.2l-5.8 1.6-6.3 3.1-3.1 2.6 2.6-1 5.2-3.2 5.8-2.1h9.4l6.8 2.6 4.2 2.1-1.5 4.2-3.7 4.8-4.2 3.1-6.3 2.6-4.7 0.5-5.3-3.6-3.1-3.2-2.1 0.6-3.7 2.1 0.6 2 3.6 4.2 2.1 2.1-0.5 1.6h-1l-1.1 2.1-3.7 4.2 1.1 2.1 3.7 2.1 2-1.1 3.7-3.6 3.7-2.1 4.7 0.5 6.3 2.6 4.2 3.2 3.7 4.7 1.5 3.7-5.2 3.1-6.3 2.1h-8.4l-6.3-2.1-6.8-4.2-0.5 0.5 5.2 3.7 5.3 2.1 5.2 1h4.7l6.3-1.5 6.3-3.2h1l1.1 3.2v5.7l-8.4 4.2-3.7 0.5-0.5-0.5v-3.6l-5.7 1.5-2.7 1.6-1 2.1-3.7-0.5-4.7-2.1-4.2-3.2h-2.1l-3.7 3.7-6.8 4.2-5.2 3.1-2.1 1.1-1.1 2.6-0.5 1.6v3.6l1.1 5.3-2.7-1.1-4.1-3.1-2.7-5.2-0.5-2.1v-4.2l2.1-4.2 4.2-3.2 7.9-1 4.2-1.6 0.5-1-6.3 2.1-5.8 0.5-3.6-1.1-3.2-2.6-2.1-4.7-0.5-2.1v-5.8l1.6-3.1 1.5-1.6 4.8-1 2.6 1 1.5 1.6v1l-2.6 1.6-1 2.6 0.5 3.2 2.1 2.1 1 0.5h3.7l2.6-1.6 1.6-4.7-0.5-5.2-2.1-5.8-3.2-4.2-1.5-1.6 3.6-3.6 2.7-5.3 1-5.2-0.5-4.7-2.1-3.2-1.6-0.5h-3.7l-2.6 1.6-1 2.6 0.5 3.1 0.5 1.6 2.1 1.1 0.5 1.5-2.1 1.6-3.1 0.5-4.7-1.5-2.1-4.2v-5.8l2.1-5.8 2.1-2.6 2.6-1.6 5.2-0.5 6.9 1.6 2.6 1-1.6-1.5-5.2-1.6-6.3-0.5-3.2-2.1-2.1-3.7-0.5-1.6v-4.7l2.6-5.2 2.7-2.6 2.6-2.1z"/>
			<path id="Layer" fill-rule="evenodd" class="s2" d="m823.3 9.1l1.6 0.6-1.1 3.6v5.3l2.1 3.6 7.9 4.8 5.8 3.6 4.1 4.2 2.1-1 3.2-2.7 4.2-2.1 4.2-1 2.1 3.1 5.7 2.1 2.1 0.6v-4.2l1.6-0.6 6.3 2.7 4.7 2.6v4.2l-1 4.7-2.7-1.1-6.2-2.6-4.8-1h-5.7l-6.3 1.6-7.4 4.1-1.5 0.6v1l2.1-1 7.8-4.2 3.7-1.1h9.4l8.9 3.7 1.6 1-0.5 2.7-3.2 5.2-3.6 3.2-6.8 3.1-3.2 1-3.6-0.5-4.2-3.1-3.2-3.2-2.1 0.6-3.7 2.1 0.6 2.6 3.6 4.2 2.1 1.5v1.1l-3.6 3.1-2.7 3.2v2.1l4.8 2.6 2.1-1.1 2.6-2.6 4.7-3.1 4.7 0.5 6.3 2.6 4.7 3.7 3.7 5.2 0.5 3.2-7.3 3.6-3.7 1.1h-8.4l-5.2-1.6-5.8-3.1-3.1-2.1 2.6 2.6 5.2 3.1 4.8 1.6 3.1 0.5h5.2l6.3-1.5 5.8-3.2h1.6l1 4.2v4.2l-4.7 3.2-5.2 2h-2.7v-4.1l-6.3 1.5-2.6 2.1-1 1.6-4.7-1.1-5.3-2.6-2.6-2.6-1.6-0.5-1 2.1-4.7 4.2-9.5 5.2-2.6 2.1-1.6 2.6v5.8l1.1 4.2-2.6-1.1-4.8-3.6-2.1-4.2-0.5-2.1v-5.3l2.1-3.6 3.2-2.6 1-0.6 7.9-1 4.2-1.6 0.5-1-6.3 2.1-6.3 0.5-4.2-1.6-3.1-3.7-1.6-4.7v-6.8l1.6-3.1 4.2-2.1 3.6 0.5 1.6 1-0.5 1.6-2.1 2.1-0.5 3.2 1.5 3.6 3.2 1.6 5.2-0.5 1.1-2.6 0.5-1.1v-7.3l-2.1-5.8-3.1-4.2-1.1-2.1 3.7-4.2 2.1-4.7 0.5-2.1v-6.8l-1.6-3.2-1.5-1.5-3.2-0.5-4.2 1-1 3.1 0.5 3.7 2.6 2.6-0.5 2.1-2.1 1.1h-4.2l-2.6-1.6-1.6-3.1v-6.3l2.1-5.8 3.1-3.1 3.7-1.1 6.3 0.5 6.3 2.1-1.6-1.5-5.7-1.6-6.3-0.5-3.7-3.2-1.6-3.6v-5.3l2.1-4.7 3.2-3.7z"/>
			<path id="Layer" fill-rule="evenodd" class="s0" d="m142 14.9l1.6 2.1 3.7 4.2 4.2 2.6 2.1 0.5h5.2l3.7-0.5-0.6 2.1v5.8l0.6 1h6.8l3.6-3.1 1.6-0.6h6.3l3.1 2.7 4.2 8.4 5.3 9.9 5.2 6.8 4.2 3.7 4.7 2.6 6.3-2.1h1.6v-1l-4.2-1.1-6.3-3.1-3.1-2.6-3.7-5.8-2.1-5.8-0.5-2.6v-7.3l1-0.6v1.6l7.9-3.7h1.6v1.1l-8.4 4.2-0.6 2.1 1.1 6.3 6.8-3.2 5.8-1.5h6.3l6.3 1.5 5.2 2.6 4.2 3.2v1l-2.1-0.5-5.3-3.1-6.2-2.6h-9.5l-7.3 2.6-3.2 1.5 1.1 3.7 3.7 5.3 5.2 3.1 5.2 2.1 4.2 0.5 2.7-1.6h1l-0.5 1.6-6.3 3.2-10.5 4.2-4.7 3.6-3.7 3.7-4.7 7.3-7.3 14.7-2.1 2.6-2.1 1.1h-5.3l-4.2-2.1-2.6-2.1-5.7 0.5-0.6 1.1v5.7l0.6 2.1-3.2-0.5h-6.3l-4.7 2.1-1-0.5 2.6-2.1 3.1-1.1h6.3l1.1 0.5v-6.2l0.5-2.1-3.7-0.6-2.6 1.1-4.2-0.5-2.6-2.1-1.1-2.1v-4.2l0.6-2.1-3.2-1.1-1.6-2.1v-5.2l3.2-3.7 2.6-2.6 4.7-5.2-4.2-4.8-2.1-2.6-2.6-1.5-1.6-2.7v-5.2l2.7-2.6 1.5-1.1v-5.7l1.6-2.7 2.1-1.5 4.7-0.6 2.1 1.1 3.7-0.5-1.1-5.3 0.6-3.1-1.1 0.5h-5.7l-5.8-2.1-4.2-3.7-1.1-2.6-2.6 2.6-4.2 3.7-3.6 1.6-2.1-0.5 6.3-3.2 3.6-4.2z"/>
			<path id="Layer" fill-rule="evenodd" class="s5" d="m30.4 8.1h1l-0.5 1.6-3.1 2.1-2.6 2.6-2.7 5.2v4.7l2.1 4.7 3.2 2.1 8.4 1.1 4.2 1.6 0.5 1.5-2.6-0.5-6.9-1.6-5.2 0.6-3.7 2.6-2.1 4.7-0.5 2.1v5.8l1.6 3.6 4.7 1.6 3.7-1 1.5-0.6-3.6-4.2-0.5-3.1 1.5-3.2 2.6-1.5h3.7l2.6 1.5 1.6 2.7 0.5 4.7-1.5 6.8-3.2 4.7-2.6 3.2 2.6 2.6 2.1 2.6 2.1 5.8 0.5 5.2-1.5 4.7-3.2 2.1h-3.7l-2.6-1.6-1.5-3.1 0.5-3.1 2.6-2.7h1l-2.1-2.6-3.6-0.5-3.7 1.6-1.6 2.1-0.5 1.5v5.8l1.6 5.2 2.1 2.7 2.6 1.5 5.2 0.6 9.5-2.1-0.5 1.5-6.9 2.1-5.2 0.6-4.2 3.1-1.6 3.7v4.2l2.1 5.7 2.7 2.6 4.7 3.2-1.6-5.3v-3.6l2.1-4.2 5.2-3.7 7.4-4.2 5.2-4.7h2.1l4.7 3.7 7.9 2.6 1-2.6 3.7-2.1 4.7-0.5 0.5 3.6 3.7-0.5 5.8-2.6h2.6l0.5 1v4.2l-2.6 3.2-4.7 1.5-3.7-0.5-2.6-3.1-0.5-5.3-4.2 1.1-2.6 2.1-0.6 3.1 0.6 3.7-4.2-0.5h-4.8l-5.2 2.1-3.7 4.2-2.1 3.6 9.5-2.1 22.5-1 5.8-2.1 5.2-3.7 2.1-2.6 2.1 1 4.2 3.7 6.3 3.2 5.8 1 18.8 0.5 12.1 2.1 1.5 0.5-3.1-6.2-3.7-3.7-5.2-2.1-6.3-0.5 0.5-1.1h6.3l4.7 2.1 3.7 2.6 2.1 3.2 1 0.5 1.1-2.6 2.6-2.6h1.1l-1.1 2.1-3.1 4.2 0.5 3.6 6.8-1.6 3.7-0.5 19.4-0.5 5.7-1 7.4-3.7 4.7-4.2 3.7 3.1 5.2 3.7 5.2 1.6 14.7 0.5 10.5 1 4.2 1.1h2.1l-3.7-5.8-4.7-3.1-2.1-0.5h-4.2l-4.7 0.5v-5.8l-1.6-2.6-5.2-1.6-1.1 5.8-2.6 2.6h-5.8l-3.1-1.6-2.1-3.6-0.5-1.6v-8.4l1.5-6.3 2.1-4.2 3.7-4.7 3.7-2.6h1l-0.5 1.6-4.2 3.1-3.7 6.3-0.5 1.6 3.2 1 5.7 2.6 2.1 0.6h8.9l5.8-2.1 6.3-3.7 2.1-1-1.1 2.1-5.2 3.6-6.8 2.6-3.2 0.6h-5.2l-5.8-1.6-7.3-3.2-1.1 6.3 0.6 2.1 7.3 3.7 4.2 1v-4.1l5.2 0.5 3.2 2.1 1.6 2.1 3.6-0.6 6.3-3.1 2.6-2.6 2.1 0.5 4.2 4.2 8.9 5.2 4.2 3.2 2.1 3.1 0.5 3.7-1.5 6.3h1v1l-3.6 1.1 1.5-4.7-11.5 0.5-2.1 0.5-2.1-0.5-90.7-0.5v1l-5.2 0.5v-1.5l-91.2 0.5-3.7 0.5-0.5-0.5-11-0.5 1.1 4.7-4.8-1.6-2.6-2.1-6.8-1-0.5-27.3-1.1-3.7v-7.3l1.1-2.6v-23.1l-1.1-3.1v-6.8l1.1-3.7 0.5-27.2 6.8-1.1 2.6-2.1z"/>
			<path id="Layer" fill-rule="evenodd" class="s6" d="m0 0.7h1073.3v126.9h-1073.3zm4.7 0.5v125.2l21 0.6h1045l1.5-1.1v-124.2l-0.5-0.5z"/>
			<path id="Layer" fill-rule="evenodd" class="s2" d="m33.5 64.7h7.9l6.3 2.1 3.7 3.1-0.6 2.6 4.8 3.2 2-1.1 3.7-3.6 3.7-2.1 4.7 0.5 6.3 2.6 4.2 3.2 3.7 4.7 1.5 3.7-5.2 3.1-6.3 2.1h-8.4l-6.3-2.1-6.8-4.2-0.5 0.5 5.2 3.7 5.3 2.1 5.2 1h4.7l6.3-1.5 6.3-3.2h1l1.1 3.2v5.7l-8.4 4.2-3.7 0.5-0.5-0.5v-3.6l-5.7 1.5-2.7 1.6-1 2.1-3.7-0.5-4.7-2.1-4.2-3.2h-2.1l-3.7 3.7-6.8 4.2-5.2 3.1-2.1 1.1-1.1 2.6-0.5 1.6v3.6l1.1 5.3-2.7-1.1-4.1-3.1-2.7-5.2-0.5-2.1v-4.2l2.1-4.2 4.2-3.2 7.9-1 4.2-1.6 0.5-1-6.3 2.1-5.8 0.5-3.6-1.1-3.2-2.6-2.1-4.7-0.5-2.1v-5.8l1.6-3.1 1.5-1.6 4.8-1 2.6 1 1.5 1.6v1l-2.6 1.6-1 2.6 0.5 3.2 2.1 2.1 1 0.5h3.7l2.6-1.6 1.6-4.7-0.5-5.2-2.1-5.8z"/>
			<path id="Layer" fill-rule="evenodd" class="s7" d="m911.9 67.3l2.1 0.5h6.3l-2.7 2.1-2.1 2.1-2 10-1.6 3.1 8.4-2.1 4.7-1 2.6-1.6 2.6-5.8h0.5l-0.5 4.2-0.5 2.1v5.8l2.1 5.8 3.1 6.2 1.6 5.8 3.2-8.9 3.1-5.2 1-3.7v-4.7l-1.5-5.8v-1.6h1l3.2 6.3 3.6 1.6 7.9 1.6 3.7 1.5-2.1-5.7-1.6-7.9-4.2-4.2 3.7 0.6 2.6 2h2.6l1.6-2 2.1 1 5.7 6.3 5.8 7.3 2.1 2.6-0.5 3.2-4.2 7.9-2.1 1.5h-5.2l-4.2-2.1-2.1-3.1-1.1-3.7v-2.1l-4.2 3.7-2.6 5.2-0.5 5.3-0.5 1.5h-6.9l-5.2 2.1-4.2 3.7-2.1 2.1-4.7-5.2-4.2-2.1-1.6-0.6h-7.3l-0.5-0.5v-3.7l-1.6-5.2-2.1-3.1-3.7-3.2-0.5 4.2-2.1 4.2-3.1 2.1-2.1 0.5h-4.7l-2.7-2.6-2.6-4.2-1.6-3.7 0.6-2.6 5.7-7.3 5.8-6.8 2.6-2.6h1.1l1.5 2h3.2z"/>
			<path id="Layer" fill-rule="evenodd" class="s0" d="m588 12.3h159.8l7.9 0.5 4.2 2.1 2.6 3.1 2.1 4.2 10.5 2.1 6.8 2.7 5.8 3.1 4.7 3.7 2.6 2.1 4.2 5.2 4.2 8.4 1.6 5.8 0.5 3.6v8.4l-1.1 6.3-2.6 6.8-3.1 5.2-4.7 5.3-5.8 4.7-6.3 3.7-9.4 3.1-7.4 1.1-3.6 7.3-4.2 3.7-3.2 1h-431.3l-5.2-2.1-3.2-3.6-3.1-6.3-9.4-1.6-6.8-2.6-7.4-4.2-5.2-4.2-4.7-5.3-4.2-7.8-1.6-4.7-1.1-6.8v-6.9l1.6-8.3 2.6-6.3 4.2-6.3 6.3-6.3 6.8-4.2 5.8-2.6 7.3-2.1 6.3-1.1 3.2-5.7 4.2-3.2 1.5-0.5zm-266.2 1.6l-4.2 2.1-3.1 3.6-2.1 4.2-6.3 0.6-8.9 2.6-7.9 4.2-5.2 4.2-3.7 3.6-4.7 7.4-2.6 7.3-0.6 3.1v12.6l2.1 7.9 3.7 6.8 4.7 5.8 6.8 5.2 7.9 4.2 7.3 2.1 7.9 1 2.1 5.8 4.2 4.7 2.1 1.1 275.6 0.5h156.2l4.7-1.6 3.7-4.2 2.1-5.2v-1.6h5.8l8.3-2.1 8.4-4.2 5.8-4.2 4.7-4.7 3.7-5.7 2.6-6.3 1.6-7.9v-6.8l-1.6-8.4-3.7-8.4-4.2-5.2-4.2-4.2-7.3-4.7-7.3-3.2-6.8-1.5-5.8-1.1-2.6-5.2-3.7-3.2-2.6-1z"/>
			<path id="Layer" fill-rule="evenodd" class="s2" d="m242.1 64.7h7.4l-3.7 7.3-1.1 4.2v5.8l1.6 3.1 2.6 1.6 4.2-0.5 2.6-2.1 0.6-4.7-1.6-2.7-1.6-1 0.5-1.6 2.7-1 5.2 1 2.1 2.6 0.5 1.6v7.3l-2.1 5.3-2.6 2.6-1.6 1.1-5.7 0.5-8.4-2.1-0.5 1 7.3 1.6 5.2 0.5 3.7 2.6 2.1 4.2v6.3l-2.6 5.3-4.2 3.6-2.6 1.1 0.5-3.7 0.5-4.2-1.5-4.2-3.7-3.1-8.4-4.7-5.2-4.7-1.1-1.1-2.1 0.5-3.7 3.2-6.2 2.6-2.7-0.5-2.1-2.6-4.2-1.6-3.1-0.5v4.1l-4.2-0.5-7.3-3.6-1.1-2.7 1.1-6.3 1-0.5 7.9 3.7 4.7 1h5.2l6.3-1.5 6.3-3.2 3.2-2.6 0.5-1-7.4 4.7-4.7 2.1-2.1 0.5h-8.9l-7.3-2.6-3.7-2.1 0.5-2.6 2.1-3.7 7.4 2.1 3.1 0.5h6.3l5.3-1.6 3.1-1.5 1.6-1.6 5.2-3.2-0.5-2.1 1.6-2.6 3.6-2.1z"/>
			<path id="Layer" fill-rule="evenodd" class="s8" d="m1019.8 53.7l2.7 0.5 2.1 1.6-0.6 2.1-3.1 3.6-5.3 3.7-5.7 2.6-8.9 3.2-5.3 3.6-3.6 4.8-2.7 6.2-0.5 2.7v9.9l2.1 4.2 3.2 1.6h5.7l2.1-2.1 1.1-5.8 4.7 0.6 2.6 2.6 0.5 4.2-0.5 2.6 4.2-1.1h4.7l5.3 2.7 4.1 4.7 1.1 3.1-4.2-0.5-5.8-1.1-7.3-0.5-14.2-0.5-5.2-1.6-4.7-3.1-3.7-3.7-1-0.5-1.1 2.1-6.8 4.7-5.2 2.1-4.2 0.5-19.4 0.5-9.4 1.6-3.7 0.5 1.6-4.7 4.7-5.2 4.2-2.1 1.5-0.5h6.3l2.7 0.5-0.6-1.6v-6.3l2.6-4.7 2.7-2.1 2.1 5.3 2.1 2.6 3.6 1.5h5.8l2.6-1.5 4.2-8.4 5.2-10 4.2-5.7 2.7-3.2 4.2-3.1 7.3-3.7 7.9-3.1 5.2-3.2z"/>
			<path id="Layer" fill-rule="evenodd" class="s9" d="m847.9 53.7l2.1 0.5 4.8 4.2 6.2 3.1 8.4 3.2 5.8 3.7 5.2 5.2 5.3 7.9 6.8 14.1 2.6 2.6 1.1 0.5h5.2l3.7-1.5 1.5-0.5 1.1-2.1 2.1-5.3 2.6 2.6 2.1 3.2 0.5 1.6v5.7l-1 2.1 3.1-1h6.3l4.7 2.1 4.2 3.6 1.6 2.1-0.5 3.2-0.6 1-11-1.6-18.8-0.5-5.8-1-6.3-3.2-5.2-4.2h-1.6l-4.2 4.2-6.3 3.2-2.6 0.5-22.5 1-6.8 1.6h-2.1l1-3.1 3.1-4.2 3.2-2.1 3.7-1.1h4.2l4.1 0.6-0.5-4.8 1.6-3.1 3.1-1.6h2.7l0.5 0.6 1 5.2 2.1 2.1 2.6 0.5 4.8-1 2.6-2.7 1-3.1v-9.4l-2.1-6.8-3.6-5.8-3.7-3.2-5.2-2.6-8.9-3.1-4.2-2.1-5.3-4.7-2.6-2.7 0.5-2z"/>
			<path id="Layer" fill-rule="evenodd" class="s9" d="m55 53.7l2.1 0.5 4.7 4.2 7.9 3.7 6.8 2.6 5.8 3.7 3.6 3.1 4.8 6.3 4.2 7.3 4.1 9.5 3.2 3.6 1 0.5h5.8l4.2-2 1.6-1.6h6.8l1 3.1-0.5 4.7-0.5 1.6 2.6-1h6.3l5.2 2.1 4.2 4.2 2.6 4.7v1.5l-13.6-2.1-18.8-0.5-5.8-1-6.3-3.2-5.2-4.7h-1.1l-3.1 3.7-6.3 3.7-3.7 1-22.5 1-7.4 1.6h-2.1l1.1-2.6 2.1-3.1 3.7-3.2 4.1-1.6h4.8l4.2 1.1-1.1-4.7 1.1-2.7 2.6-2 1-0.6h3.2l1.5 6.3 1.6 1.6 3.7 0.5 4.7-1.6 2.1-2.6 1-8.4-1-6.8-4.2-8.4-3.7-3.6-6.3-3.2-8.9-3.1-5.7-3.2-5.3-5.2-1-2.6z"/>
			<path id="Layer" fill-rule="evenodd" class="s10" d="m226.9 53.7l2.6 0.5 2.7 2.6-5.3 5.8-5.7 3.7-11.6 4.1-5.7 3.2-3.2 3.7-2.6 4.2-1.6 5.2-0.5 2.6v8.4l2.1 4.7 3.1 1.6h5.8l2.1-2.1 1.6-5.8 4.2 0.6 2.6 2 0.5 1.6v3.7l-0.5 2.1 4.7-1.1h4.2l4.2 1.6 3.1 2.6 3.7 5.8v0.5l-4.7-0.5-5.3-1.1-7.3-0.5-14.7-0.5-5.2-1.6-5.2-3.6-3.7-3.2-4.7 4.2-7.4 3.7-5.7 1-19.4 0.5-8.9 1.6h-1.6l-1.1-3.6 3.2-4.2 4.2-3.2 3.1-1h6.3l3.2 1-1.1-2.1v-5.7l1.1-1.6 6.2-0.5 3.7 3.1 2.6 1h5.3l2.6-1.5 3.1-5.3 3.2-6.8 4.2-7.8 4.2-5.3 4.2-4.2 5.2-3.1 13.1-5.3 4.7-3.6z"/>
			<path id="Layer" fill-rule="evenodd" class="s11" d="m141.5 17.5h1l3.2 4.2 4.2 2.6 3.7 1.1h6.8l0.5 8.4-2.1 1-2.1-0.5-4.7-0.5-3.2 1.5-1.5 2.7v5.7l-3.2 2.1-1 1.6v5.2l1 2.7 2.6 1 3.2 3.7 2.6 3.1 1.1 1.1-3.7 3.6-3.2 4.2-3.1 2.6-0.5 1.1v5.2l2.1 2.1 2.1 1.1v6.3l2.1 3.1 3.1 1.1 3.7-0.6 2.6-0.5 2.1 1.1-0.5 8.3h-7.4l-5.2 2.1-3.7 3.2-1.6 2.6-1.5-0.5-2.6-3.7-4.2-2.6-3.2-1.1h-7.8v-5.2l-0.6-3.1 2.7-1.1 2.6 0.5 3.6 0.6 3.2-1.6 1.6-2.1v-6.3l4.2-3.1 0.5-1.1v-4.2l-2.1-3.1-3.2-2.1-3.6-5.3-1.6-1 1-2.1 3.7-4.2 5.3-5.2 0.5-1.1v-4.2l-2.1-2.6-2.6-1.6v-6.3l-1.6-2.6-2.6-1-4.8 0.5-2 0.5-2.7-1 0.6-2.7v-5.7h6.8l5.7-2.1 4.8-4.2z"/>
			<path id="Layer" fill-rule="evenodd" class="s12" d="m933.9 12.3l4.2 0.5 9.9 1.6 20.5 0.5 5.2 1.6 5.8 3.1 4.7 4.2 2.6-2.6 4.2-3.2 4.2-2.1 2.1-0.5 23.6-1 8.9-2.1-0.5 2.6-3.7 4.7-2.6 2.1-2.1 1.1-5.3 0.5-5.2-1.1 0.5 5.3-1.5 2.6-2.1 1.6-3.7 0.5-0.5-0.5-1.1-5.3-1.6-2.1-4.7-0.5-4.2 1.6-1.5 1.6-1.1 3.1v10l2.1 6.8 3.7 5.7 3.6 3.2 6.9 3.1 3.1 1.1-0.5 1-5.8 2.1h-3.1l-5.8-4.2-3.7-3.6-4.7-6.9-4.2-7.8-2.6-5.8-2.6-4.2-1.6-1h-6.8l-3.1 1.5-2.1 2.7-1.6 4.7-2.1-0.5-3.1-4.8-0.6-1.5v-6.3l0.6-1.1-3.7 0.6h-4.7l-5.3-2.1-4.2-3.7-3.1-5.8z"/>
			<path id="Layer" fill-rule="evenodd" class="s13" d="m839 12.3l9.5 2.1 23.5 1 6.3 2.6 4.2 3.7 2.7 2.1 4.7-4.2 8.4-4.2 3.1-0.5 21-0.5 8.9-1.6h1.5l1.1 2.1-0.5 2.6-3.7 4.2-5.2 2.6-1.6 0.6h-5.3l-3.6-1.1 1 2.1v5.8l-2.6 5.2-2.6 2.1-2.6-6.3-3.2-2.6-1.6-0.5h-6.8l-2.6 2.6-4.2 8.4-4.7 8.9-4.7 6.3-4.7 4.7-5.8 3.1-7.9-2.6v-1l7.9-3.2 5.2-3.6 3.7-5.3 2.1-5.2 0.5-2.6v-10l-2.1-4.2-2.6-1.6-4.7-0.5-2.6 1.1-1.6 3.6-1 3.7-3.7-0.5-3.2-2.7-0.5-3.6 0.5-3.2-5.7 1.1-4.7-0.5-4.2-2.7-3.2-3.6z"/>
			<path id="Layer" fill-rule="evenodd" class="s9" d="m142 11.8l0.5 1.5-2 4.2-4.2 4.7-4.2 2.1-1.6 0.6h-5.8l-3.1-1.1 1 3.7-0.5 5.2-7.3 0.5-3.7-3.1-1.6-0.5h-6.8l-2.6 2.6-4.2 8.4-5.2 9.9-5.8 7.4-5.2 4.2-3.7 1.5-7.3-2.6-0.6-1 6.8-2.7 5.3-3.1 3.1-3.7 3.2-6.3 1-3.6 0.5-7.9-1-4.7-1.1-2.6-5.7-1.6-3.7 0.5-2.1 2.1-1 5.8-4.2-0.5-2.6-2.1-1.1-4.2 1.1-3.7-2.1 1.1-5.8 0.5-4.2-1.1-4.2-3.1-3.7-5.8 0.6-1 8.9 2.1 23 1 5.8 2.1 4.7 3.7 2.1 2.1 2.1-1.1 5.8-4.2 5.7-2.6 3.2-0.5 20.4-0.5 12.1-2.1z"/>
			<path id="Layer" fill-rule="evenodd" class="s12" d="m236.4 12.3h1l-1 2.6-3.2 4.2-3.7 3.1-6.2 1.1-4.2-0.5-1.6-1.1 0.5 2.6v3.7l-1.6 2.6-3.6 1.6h-2.1l-1.6-5.8-1.6-2.1-4.2-0.5-4.7 1.6-1.6 2.1-1 3.6v7.9l1.6 6.3 3.1 5.8 2.1 2.6 5.8 3.6 6.8 2.7v1l-8.4 2.6-6.3-4.2-3.7-3.6-5.2-7.4-7.3-15.2-2.6-3.1-1.1-0.5h-6.3l-3.1 1.5-2.1 2.1h-6.8l-1.1-1.5v-5.8l1.1-2.1-3.7 1.1h-5.2l-5.3-2.1-4.7-4.8-1.1-1.5 0.6-2.7 0.5-1 11.5 1.6 20.5 0.5 5.2 1.6 5.8 3.1 4.7 4.2 2.6-2.6 5.2-3.7 5.3-2.1 23.6-1z"/>
			<path id="Layer" fill-rule="evenodd" class="s2" d="m95.4 43.2l2.6 2.6 5.8 6.8 4.7 5.8 3.1 2.6v6.3l-1.5 1.6h-1.1v1h-1l-1.1 2.1-4.7 5.3-5.8 7.3-1.5-0.5-2.1-4.7 4.2-3.7v-1.1l-4.2 3.7h-1.1l-3.7-5.2-3.6-4.2-5.3-3.7-1.5-1.6 4.7-2.6 6.3-6.3 3.1-4.7 2.1 1.1 3.2 2.6-1.1-2.1-2.6-2.6 0.5-2.7z"/>
			<path id="Layer" fill-rule="evenodd" class="s2" d="m980.5 43.2l1.6 2.1 1.6 3.7-4.2 3.6-0.5 1.1 2.6-1.6 2.1-2.1h1l3.7 5.3 5.2 5.2 5.3 3.1-2.1 2.1-4.2 3.2-4.7 4.7-3.2 4.7-2.1-1-3.6-3.2 2.1 3.2 2.6 2.1-1.1 2.6-1.5 3.1-2.7-2.6-4.2-5.2-4.7-5.8-3.6-3.7-1.1-0.5v-5.8l3.7-3.6 3.6-4.2 6.9-8.4z"/>
			<path id="Layer" fill-rule="evenodd" class="s2" d="m187.1 43.7l1.6 0.5 2.1 3.7v1.1l-3.7 3.1-0.5 1.1 2.1-1.1 2.1-2.1 1.5 0.5 4.2 5.8 3.7 3.7 6.3 4.2-5.8 3.6-5.2 5.3-3.7 5.2-2.1-1-3.1-2.7 1.5 2.7 2.7 2.1-1.1 2.6-1.6 2.6-2.6-2.6-3.6-4.2-4.8-5.8-5.2-5.2v-5.3l6.8-6.8 6.8-8.9z"/>
			<path id="Layer" fill-rule="evenodd" class="s2" d="m888.3 43.7l3.1 2.6 5.3 6.9 6.3 6.8 1.5 1.5v5.3l-6.2 6.3-5.8 7.3-3.7 4.2-1.6-1.6-1.5-2.6 1-2.1 3.2-2.6 0.5-1.1-2.6 1.6-2.6 2.1-2.1-2.1-3.2-4.2-4.7-4.7-4.7-3.1 2.1-1.6 4.7-3.7 4.2-4.2 3.1-4.7 2.1 1.1 2.1 2.1 1.6 0.5-3.7-4.2-1-1.6z"/>
			<path id="Layer" fill-rule="evenodd" class="s14" d="m0 0.7h4.7v126.3l1.1 0.6h-5.8z"/>
			<path id="Layer" fill-rule="evenodd" class="s15" d="m141.5 17.5h1l3.2 4.2 4.2 2.6 3.7 1.1h6.8l0.5 8.4-2.1 1-2.1-0.5-4.7-0.5-3.2 1.5-1.5 2.7v5.7l-3.2 2.1-1.6 3.2-0.5 2.6h-0.5l-1-4.7-2.7-2.1-1.5-1.1v-6.3l-1.6-2.6-2.6-1-4.8 0.5-2 0.5-2.7-1 0.6-2.7v-5.7h6.8l5.7-2.1 4.8-4.2z"/>
			<path id="Layer" fill-rule="evenodd" class="s16" d="m164 33.8l5.3 1 3.1 2.6 1.6 4.7-0.5 4.8-1.6 1.5-3.2-3.1-1.5-0.5h-4.2l-2.6 1.5-1.6 2.7-0.5 3.1 1.5 4.2 4.8 4.7v2.1l-5.3 0.5h-4.7l-2.6-2.1-3.7-5.2-3.1-2.1-1.6-2.1v-4.2l2.6-2.6 3.2-0.5-1.6-3.7 0.5-3.7 2.6-2.6 3.7-0.5 2.1 1 3.1-0.5z"/>
			<path id="Layer" fill-rule="evenodd" class="s17" d="m119.5 64.7h9.4l4.2 3.7 2.6 3.6 3.2 2.1 1.6 3.2-0.6 3.6-2.6 2.1-2.6 1.1 1 2.1v4.7l-3.1 2.6-2.6 0.5-2.7-1-4.1 0.5-1.6 0.5h-5.3l-3.1-1.5-2.6-3.2-0.5-1.6v-5.2l1-2.6 1.6 0.5 2.6 2.6 1.6 0.6h3.6l2.7-1.6 2.1-3.2v-4.7l-2.7-4.2-3.1-2.1-0.5-2.6z"/>
			<path id="Layer" fill-rule="evenodd" class="s17" d="m154.6 64.7h7.9l2.1 0.5-0.6 2.6-3.6 3.2-1.6 3.1v4.7l1.6 2.7 2.6 2.1h4.2l3.1-2.1 1.6-1.6h1l0.6 1.6v7.3l-2.1 3.1-3.7 2.1h-5.8l-4.7-1.5-1.6 1h-4.1l-2.7-1.6-1-2.1 0.5-4.2 1.1-2-2.7-0.6-3.1-2.6v-4.2l3.1-3.7 1.6-0.5 3.7-5.2z"/>
			<path id="Layer" fill-rule="evenodd" class="s16" d="m117.9 33.8l5.8 1 3.6 0.5 1.6-1 3.7 0.5 3.1 2.6v4.2l-1.5 3.2 3.1 0.5 2.6 2.1 0.6 3.7-1.6 3.1-3.7 2.1-3.1 4.7-3.2 2.6h-5.2l-4.7-0.5 0.5-2.6 4.2-3.7 1.6-3.1v-4.2l-1.6-2.6-2.6-2.1h-4.8l-3.1 2.1-2.1 1.5-1-2.6v-5.2l2.1-4.2 3.6-2.1z"/>
			<path id="Layer" fill-rule="evenodd" class="s15" d="m896.2 30.1h5.2l4.2 2.1 2.1 3.1 1.6 5.3 2.6-2.1h1l1.6 6.3 1.6 5.2 2.1 2.1 2.1 1.6h-5.8l-4.7 1.6v1l-4.7 2.6-1.1 0.5-3.1-2.6-4.7-5.7-6.3-7.9-0.6-2.1 4.2-8.4z"/>
			<path id="Layer" fill-rule="evenodd" class="s18" d="m932.8 49h7.9l3.1 1.5 2.7 2.1 2.1 4.2 0.5 4.7-1.1 4.8-2.1 3.1-2.6 2.1-4.2 1.6h-4.7l-5.2-2.1-3.2-3.7-1.5-3.7v-5.2l1.5-4.2 2.6-3.1z"/>
			<path id="Layer" fill-rule="evenodd" class="s19" d="m265.2 81.5l1 0.5 3.7 7.3 3.1 3.2v1.5l-3.1 2.1-2.1 2.6-1 3.2 0.5 5.2 0.5 1.6 2.6-0.5 7.4-2.1h6.8l5.7 2.1 6.3 3.1 1.6 0.6 6.3 0.5 1.6 2.6-46.2 0.5 1.1-3.1 1.6-5.3-0.6-4.7-2.1-4.2-2.6-2.6 4.2-2.6 2.6-4.7z"/>
			<path id="Layer" fill-rule="evenodd" class="s19" d="m810.2 81.5h1.1l1 6.2 2.6 5.3 4.2 2.6v1.1l-3.7 3.1-1 2.6v6.8l1.6 4.2 0.5 1.6-45.6 0.5 0.5-2.6 2.6-0.5 4.8-0.5 11.5-5.3 2.6-0.5h5.3l6.2 1.6 2.7 1h1.5l1.1-3.1v-4.8l-1.6-3.1-3.7-3.1-1-0.6 1-2.1 3.2-4.2 2.1-4.1z"/>
			<path id="Layer" fill-rule="evenodd" class="s11" d="m953.8 67.8l3.7 0.6 2.6 2h2.6l1.6-2 2.1 1 5.7 6.3 5.8 7.3 2.1 2.6-0.5 3.2-4.2 7.9-2.1 1.5h-5.2l-4.2-2.1-2.1-3.1-1.1-3.7v-2.1l-1-0.5 0.5-1.1h1.6l-2.1-5.7-1.6-7.9-2.6-2.6z"/>
			<path id="Layer" fill-rule="evenodd" class="s20" d="m968 30.1h5.2l2.6 2.6 4.2 8.4-0.5 2.1-6.8 8.4-4.7 5.7-2.1 0.6-3.7-3.2-3.2-1h-5.7l2.1-1.6 2.1-2.1 1-2.6 1.1-5.8 2.1-5.2 1.5-3.7 3.2-2.1z"/>
			<path id="Layer" fill-rule="evenodd" class="s19" d="m177.1 29.6l3.2 0.5 2.6 2.1 4.2 8.4-0.5 2.6-5.8 7.3-5.8 6.8-3.1 2.7-1.1-2.1h-4.1l-1.6 1.5-2.1-1-3.2-3.7-0.5-1.5v-3.7l1.6-2.6 2.6-1.6h3.2l3.1 2.1 2.6 3.1 2.1-4.7v-5.2l-2.1-4.2-2.1-2.1 0.5-2.1 3.7-2.1z"/>
			<path id="Layer" fill-rule="evenodd" class="s21" d="m171.4 68.4l2.1 1 3.6 3.7 5.8 7.3 4.2 5.2-0.5 3.7-3.7 6.8-2.6 2.1h-4.7l-4.2-1.5-1.1-1.6v-1.6l2.6-2.1 1.6-4.2v-4.7l-1.6-5.2h-1l-1.1 2.6-3.1 2.6-4.2 0.5-3.1-2.6-1.1-2.1v-3.7l2.1-3.1 2.6-2.6 2.1 1 3.7 0.5 1.6-0.5z"/>
			<path id="Layer" fill-rule="evenodd" class="s11" d="m111.1 68.4l1.6 0.5 1.5 1.5h2.7l1.5-1.5 2.7 1 2.6 3.2 1 2.6-0.5 3.7-2.1 2.6-2.1 1-4.2-0.5-2.6-2.1-2.1-2.6-2.1 5.8 0.5 5.2 2.1 3.7 2.1 1.5-1 2.1-4.2 2.1h-4.7l-3.2-2.6-4.2-8.4 1.1-2.6 6.8-8.4 3.7-4.2z"/>
			<path id="Layer" fill-rule="evenodd" class="s11" d="m103.2 30.1h5.8l3.2 1.6 1.5 1.5-0.5 1.6-2.6 2.6-1.6 4.2 0.5 5.3 1.1 2.6v1.6l1.6-1.6 2-2.6 3.2-1.6 4.2 0.5 2.6 3.2 0.5 3.6-2.1 4.2-3.1 2.6h-1.1l-1.5-1.5h-3.2l-1 2.1-2.1-1.1-5.3-5.2-4.2-5.3-4.7-6.3 1.6-4.7 2.6-4.7z"/>
			<path id="Layer" fill-rule="evenodd" class="s17" d="m31.4 42.1h3.7l2.6 2.7 0.6 2.1v3.6l-1.6 5.8-3.2 4.7-4.2 3.2 3.2 1.5 3.1 3.7 2.1 4.7 0.6 2.6v4.2l-1.6 3.7-1.1 1h-4.2l-2.6-2.6 0.5-3.6 1.6-1.6 2.6-0.5-2.1-3.2-2.6-1.6-5.7-1v-14.7l6.8-2.1 2.6-2.1 1-2.1-2.6-0.5-2.1-2.6 0.5-3.7z"/>
			<path id="Layer" fill-rule="evenodd" class="s22" d="m259.9 12.8h45.1l-0.5 1-10.5 2.1-9.4 3.7-5.8 0.5-6.3-1.5-4.2-1.6-1.5 4.2 0.5 5.2 2.6 3.7 3.1 2.1-1 2.1-3.7 5.2-2.1 4.7-1-0.5-1.6-5.2-2.1-3.2-2.1-2.1-1.6-0.5 1.1-2.1 2.6-3.1 1.1-4.2-0.6-4.7-2.1-4.8z"/>
			<path id="Layer" fill-rule="evenodd" class="s23" d="m1041.3 42.1h3.7l2.1 1.1 0.5 1v3.7l-3.1 2.6h-1.6l2.1 3.2 2.6 1.6 5.8 1.5v14.7l-6.8 1.6-2.7 2.6v1.6l2.7 1.5 1 1.1v3.7l-2.1 2h-4.7l-2.1-3.1-0.5-4.2 1-5.2 2.1-4.2 2.6-3.2 3.2-1.5-2.6-2.1-2.7-2.7-2.6-4.7-0.5-2.1v-7.3l1.6-2.6z"/>
			<path id="Layer" fill-rule="evenodd" class="s24" d="m772 12.8h44.5l-0.5 2.1-1.6 4.2v6.8l2.1 3.7 2.6 2.6-3.1 2.1-3.2 4.2-1.5 6.3-1.1-0.6-2.1-5.2-3.1-4.2-1.6-1.6 0.5-1.5 3.2-2.1 2.1-3.2 0.5-1.5v-4.2l-1.1-3.7-7.3 2.6-2.6 0.5h-4.7l-6.3-2.1-7.4-2.6-8.3-1.6z"/>
			<path id="Layer" fill-rule="evenodd" class="s25" d="m1031.4 12.8h12.5l1.1 1.6-0.5 4.7-3.7 4.2-8.4 4.7-4.7 3.7-2.1 2.1-2.1-1.1-4.7-3.1-6.3-2.1-1-3.7 1-0.5 2.1 0.5h4.2l4.7-1.6 4.7-4.2z"/>
			<path id="Layer" fill-rule="evenodd" class="s26" d="m239 12.8h12l1.1 1v4.8l-2.1 3.1-5.8 3.7-6.8 4.2-3.1 2.6-1.1 1.6-2.1-1.1-5.2-3.1-6.3-2.1-0.5-0.5v-3.7l2.6 0.5h4.2l4.7-1.6 4.7-4.2 3.2-4.7z"/>
			<path id="Layer" fill-rule="evenodd" class="s25" d="m824.9 12.8h13.1l3.7 5.8 4.1 3.6 4.8 1.6h4.2l2.6-0.5v3.7l-7.9 3.1-4.2 3.1h-2.1l-5.2-4.7-10-5.7-3.1-3.7-0.5-1.6v-3.7z"/>
			<path id="Layer" fill-rule="evenodd" class="s19" d="m32.5 12.8h12.6l4.2 6.3 3.6 3.1 4.7 1.6h7.4l-1.1 3.7-6.3 2.1-4.7 3.1-2.1 1.1-2.6-2.7-4.7-3.6-8.4-4.7-2.6-3.2-0.5-1v-5.3z"/>
			<path id="Layer" fill-rule="evenodd" class="s15" d="m843.7 94.6l2.1 1 4.8 3.1 6.3 2.1 1 3.7h-7.9l-5.2 2.1-3.7 3.7-2.6 4.7h-13.6l-0.5-4.7 2.1-3.2 3.6-3.1 8.4-4.7z"/>
			<path id="Layer" fill-rule="evenodd" class="s15" d="m231.6 94.6l2.1 0.5 2.1 2.6 5.8 3.7 6.3 3.6 2.6 2.1 1.6 3.2v4.7h-14.2l-3.6-6.3-4.2-3.1-3.7-1.1h-7.3v-3.1l4.2-1.6 8.3-4.2z"/>
			<path id="Layer" fill-rule="evenodd" class="s11" d="m1024.6 94.6h1.5l3.2 3.6 7.8 4.7 5.8 3.7 2.1 4.2-0.5 4.2-12.6 0.5-1.6-1.6-3.1-4.7-3.7-3.1-4.2-1.6h-7.8l0.5-3.7 6.8-2.1 4.7-3.1z"/>
			<path id="Layer" fill-rule="evenodd" class="s15" d="m50.8 94.6l2.1 1 4.2 2.6 5.8 2.1 1.6 0.5 0.5 3.7h-7.9l-4.2 1.6-4.2 3.7-3.1 5.2h-13.6v-5.8l3.1-3.6 10-5.8z"/>
			<path id="Layer" fill-rule="evenodd" class="s24" d="m933.9 17.5l1.6 0.5 0.5 2.1-3.2 7.4-2.6 5.2-0.5 1.6v6.3l1 3.6v2.7l-1.5-2.1-2.1-4.2-3.2-1.6-8.9-1.6-1-0.5 1.5-4.7 0.6-4.2v-2.6h7.3l5.2-2.1 4.2-3.7z"/>
			<path id="Layer" fill-rule="evenodd" class="s27" d="m932.8 49h7.9l3.1 1.5 2.7 2.1 2.1 4.2 0.5 4.7-1.1 4.8-2.1 3.1-2.6 2.1-4.2 1.6h-4.7l-5.2-2.1-3.2-3.7-1.5-3.7v-5.2l1.5-4.2 2.6-3.1zm1.6 2.6l-4.7 3.1-2.1 4.2v3.7l2.1 4.2 3.7 2.6 1.5 0.5h3.7l4.2-2.1 2.6-3.6 0.6-1.6v-3.7l-2.1-4.2-3.2-2.6-1.6-0.5z"/>
			<path id="Layer" fill-rule="evenodd" class="s28" d="m1008.3 68.9h3.2l5.7 3.6 2.6 3.2-0.5 2.1-4.2 2.1-4.7 1h-6.3l-7.3-1.5-2.1-1.1 0.5-2.1 3.7-3.1 6.3-3.2z"/>
			<path id="Layer" fill-rule="evenodd" class="s28" d="m65 68.9l4.7 0.5 6.3 2.6 4.2 3.2 1.6 1.5v1.6l-6.3 2.1-2.7 0.5h-6.8l-5.7-1.5-3.7-2.1 0.5-2.1 4.2-4.2z"/>
			<path id="Layer" fill-rule="evenodd" class="s28" d="m215.9 68.9h3.2l5.7 4.2 2.1 2.1-0.5 2.6-4.2 2.1-4.2 1h-6.3l-7.3-1.5-2.6-1.1 1-2.6 4.7-3.7z"/>
			<path id="Layer" fill-rule="evenodd" class="s29" d="m1003.6 47.4h7.3l5.3 1.6 3.6 2.1-0.5 2.1-4.2 4.1-3.6 2.1-4.2-0.5-6.9-2.6-4.7-3.7-1-2.6 3.6-1.6z"/>
			<path id="Layer" fill-rule="evenodd" class="s28" d="m66 47.4h6.8l8.4 2.1 0.6 2.1-4.8 4.2-7.3 3.1-4.7 0.5-5.3-3.6-3.1-3.2 0.5-2.1 6.3-2.6z"/>
			<path id="Layer" fill-rule="evenodd" class="s28" d="m857.9 68.9l4.7 0.5 6.3 2.6 4.7 3.7 1.1 1v1.6l-6.8 2.1-2.7 0.5h-5.7l-6.8-1.5-3.2-2.1 0.5-2.1 2.1-2.7z"/>
			<path id="Layer" fill-rule="evenodd" class="s28" d="m858.9 47.4h6.9l6.8 1.6 2.1 1-0.6 2.1-3.6 3.2-6.8 3.1-3.2 1-3.6-0.5-4.2-3.1-3.7-4.2 2.6-2.1 4.7-1.6z"/>
			<path id="Layer" fill-rule="evenodd" class="s30" d="m211.2 47.4h7.3l6.3 2.1 2.1 1.6-0.5 2.6-4.2 3.6-3.7 2.1-4.2-0.5-6.2-2.6-4.8-3.1-1.5-2.1v-1.1l6.3-2.1z"/>
			<path id="Layer" fill-rule="evenodd" class="s30" d="m987.3 55.8l2.1 0.5 4.2 4.2 5.3 3.1-2.1 2.1-4.2 3.2-4.2 4.2h-1.1l-3.6-4.2-4.7-3.2-8.4-1.5v-0.6l6.8-0.5 5.2-2.6 4.2-3.7z"/>
			<path id="Layer" fill-rule="evenodd" class="s31" d="m158.3 12.8h68.1l3.1 0.5v0.5l-21.4 0.6-7.4 1.5-5.2 3.2-3.2 3.1-2.1-0.5-4.7-3.7-6.8-3.1-2.6-0.5-22.5-0.6v-0.5z"/>
			<path id="Layer" fill-rule="evenodd" class="s32" d="m950.7 12.8h67l4.2 0.5v0.5l-21.5 0.6-5.7 1-5.3 2.6-4.2 3.7-1 1.1-4.2-3.7-7.3-3.7-3.7-1-23.1-0.6v-0.5z"/>
			<path id="Layer" fill-rule="evenodd" class="s33" d="m849 12.8h66.5l7.9 0.5v0.5l-23.1 0.6-5.2 1.5-5.8 3.2-3.6 3.1h-1.6l-2.6-2.6-2.6-2.1-4.8-2.1-5.7-1-21-0.6z"/>
			<path id="Layer" fill-rule="evenodd" class="s34" d="m880.4 55.8l2.1 1 5.8 4.7 3.7 1.6 4.2 0.5-1.6 1.1-5.3 1.6-4.7 3.1-2.6 3.1-2.1-0.5-4.7-4.7-4.7-3.1 2.1-1.6 4.7-3.7z"/>
			<path id="Layer" fill-rule="evenodd" class="s28" d="m87.5 55.8l2.6 1 4.8 4.2 4.1 2.1 3.7 0.5-1 1.1-4.2 1-4.2 2.7-3.2 2.6-1 2.1-2.1-1.1-2.6-3.1-5.3-3.7-1.5-1.6 4.7-2.6z"/>
			<path id="Layer" fill-rule="evenodd" class="s30" d="m195 55.8l2 1 5.3 4.7 4.2 2.1-2.6 2.1-4.8 3.7-3.1 3.1-2.1-1-4.7-4.2-4.2-2.1-4.2-1v-0.6l5.2-1 4.2-2.6z"/>
			<path id="Layer" fill-rule="evenodd" class="s35" d="m56.6 12.8h66l8.4 0.5v0.5l-23.6 0.6-6.3 2.1-5.7 3.6-2.6 2.1-2.1-1-3.7-3.2-5.2-2.6-6.3-1-21-0.6z"/>
			<path id="Layer" fill-rule="evenodd" class="s36" d="m938.1 22.2l7.8 3.2h7.4v4.7l2.1 5.8 1 2.1-6.8 1-2.6 1.6h-1.1l-1 2.6-1.6 4.2h-0.5l0.5-5.8 0.5-2.1v-4.2l-1.5-5.2-4.2-7.3z"/>
			<path id="Layer" fill-rule="evenodd" class="s37" d="m190.8 106.1l2.1 0.5 4.1 3.7 5.8 2.6 2.1 0.5 7.9 0.5 16.2 0.6v0.5h-77v-0.5l23.6-0.6 6.8-2 5.2-3.2z"/>
			<path id="Layer" fill-rule="evenodd" class="s38" d="m884.6 105.6l4.2 3.1 7.9 4.2 5.2 1 21 0.6v0.5h-75.5v-0.5l18.4-0.6 7.8-1 5.3-2.1 5.2-4.7z"/>
			<path id="Layer" fill-rule="evenodd" class="s39" d="m983.7 105.6l1.5 0.5 2.7 2.6 4.7 3.2 5.2 1.5 6.8 0.5 16.8 0.6v0.5h-76v-0.5l23.1-0.6 5.2-1.5 6.8-3.7 2.7-2.1z"/>
			<path id="Layer" fill-rule="evenodd" class="s40" d="m91.7 105.6l2.1 1v1.1l2.1 1 7.9 4.2 5.2 1 21.5 0.6v0.5h-76v-0.5l18.9-0.6 7.8-1 6.3-3.1 3.7-3.2z"/>
			<path id="Layer" fill-rule="evenodd" class="s41" d="m936 23.3h1l4.2 7.8 1.1 3.2v6.3l-1.6 4.7h-2.1v-4.7l-1.6-3.7-1.5 2.1-1.1 3.7v3.6l-1.6-0.5-1.5-4.7v-6.8l4.2-8.9z"/>
			<path id="Layer" fill-rule="evenodd" class="s42" d="m933.9 75.7h0.5l0.5 5.8 1.6 3.6 2.1-4.2 0.5-4.7 2.1 1.1 1.1 4.2v6.2l-4.2 8.4-1.6 2.1-4.7-8.9-0.5-1.6v-7.3l2.1-4.2z"/>
			<path id="Layer" fill-rule="evenodd" class="s0" d="m226.9 52.1l2.6 0.5 4.2 3.2-1.5 2.6-4.2 4.7-1.6 1.6 2.1 1 5.2 5.8-1 2.1-4.7 2.6h-1.1l-3.1-3.7-4.7-3.1-4.8 0.5-5.7 2.1-1.1-0.5 3.2-2.1 10.5-3.7 5.7-3.6 4.7-5.3-2.6-2.6-2.6 0.5-3.1 3.2-1.1-0.6 3.7-3.6z"/>
			<path id="Layer" fill-rule="evenodd" class="s43" d="m1071.2 0.7h2.1v126.9l-1.6-0.6v-125.2z"/>
			<path id="Layer" fill-rule="evenodd" class="s0" d="m1020.4 52.1l2.6 1.1 3.6 2.6-1.5 2.6-5.3 5.2-0.5 1.1 2.1 1 5.2 5.8-0.5 1.6-5.2 3.1-2.1-1-2.6-2.7-4.7-3.1-6.3 0.5 1.5-1.5 6.8-2.7 5.3-3.1 2.6-2.1 2.6-3.2v-1.5l-2.1-1.6-2.6 0.5-2.6 2.6-1.1-0.5z"/>
			<path id="Layer" fill-rule="evenodd" class="s0" d="m217.5 21.7l2.1 1.1v4.2l6.3 2 5.2 3.2 2.1 1 2.6-3.1h1.1l-1.1 2.1-2.6 3.1-2.1-1-4.7-3.2-4.7-2.1h-2.6l-2.1 2.7-5.8 2.1-2.1-0.6-0.5-3.6h-4.2l-6.3 3.1h-1.6l-0.5-3.7 1.6-3.1 2.1-1.6 3.6-1 4.2 0.5 2.1 2.6 1.1 4.7v1.1l5.7-2.1 1.1-2.1z"/>
			<path id="Layer" fill-rule="evenodd" class="s0" d="m204.4 29h1.6v1.1l-8.4 4.2-0.6 2.1 1.1 6.3 6.8-3.2 5.8-1.5h6.3l6.3 1.5 5.2 2.6 4.2 3.2v1l-2.1-0.5-5.3-3.1-6.2-2.6h-9.5l-7.3 2.6-3.2 1.5 1.1 3.7 3.7 5.3 5.2 3.1 5.2 2.1 4.2 0.5 2.7-1.6h1l-0.5 1.6-6.3 3.2-3.2 0.5 1.6-1.6h1.6v-1l-4.2-1.1-6.3-3.1-3.1-2.6-3.7-5.8-2.1-5.8-0.5-2.6v-7.3l1-0.6v1.6z"/>
			<path id="Layer" fill-rule="evenodd" class="s44" d="m948.6 68.9l4.2 0.5 3.1 2.1 1.6 2.6 1.5 8.4-7.3-0.5-4.2-2.1-2.1-2.6-0.5-1.1v-3.7l1.6 1.6 4.7 1.1-1.1-4.2z"/>
			<path id="Layer" fill-rule="evenodd" class="s45" d="m922.9 68.9l2.1 0.5-2.1 2.1-0.5 4.2 4.7-1.6 0.5-1h1l-0.5 3.6-2.1 3.2-2.6 1.6-8.4 1.5 0.5-7.3 1.6-3.7 2.6-2.1z"/>
			<path id="Layer" fill-rule="evenodd" class="s46" d="m956.4 39l2.1 0.5-1 7.9-2.1 3.1-3.7 2.1h-3.1l1-1.5h1.1l0.5-4.8-4.7 1.1-1.6 1.6v-3.2l2.6-4.2 2.6-1.5z"/>
			<path id="Layer" fill-rule="evenodd" class="s47" d="m915 39l6.3 0.5 4.2 1.6 2.1 2.6 1 2.1v2.6l-1.5-0.5v-1h-4.7l1 4.2 1.6 1.5-4.2-0.5-3.2-2.1-1.5-2.6z"/>
			<path id="Layer" fill-rule="evenodd" class="s48" d="m50.8 57.9l3.7 3.1 2.6 2.6-0.5 1.6h-1l-1.1 2.1-2.6 2.6-2.1-1-3.2-2.1-5.2-1.6-7.9-0.5 1.1-1.1 10.5-1.5 4.2-2.1z"/>
			<path id="Layer" fill-rule="evenodd" class="s28" d="m843.2 57.9l2.1 1 2.6 3.2 2.1 1.5v1.1l-3.6 3.1-1.6 2.1h-1.6l-2.6-2.6-6.3-2.1-6.8-0.5v-1.1l8.9-1 4.7-2.1 1.6-1.1z"/>
			<path id="Layer" fill-rule="evenodd" class="s49" d="m1025.1 57.9l3.6 3.1 4.8 1.6 7.3 1 0.5 1.1-8.4 1-4.2 1.6-2.1 1.6-0.5 1.5-2.1-1-3.6-4.2-1.1-0.5 1.1-2.1z"/>
			<path id="Layer" fill-rule="evenodd" class="s50" d="m231.6 58.4l2.1 0.5 3.2 2.6 6.3 1.6 5.7 0.5 0.6 1.1-7.4 0.5-5.2 1.6-3.2 2.1-0.5 1.5-1.6-0.5-3.6-4.2-1.6-1 0.5-1.6 3.2-2.6z"/>
			<path id="Layer" fill-rule="evenodd" class="s0" d="m848.5 13.8h19.9l7.3 1.6 4.7 2.6 3.7 3.2v1l2.6-1.5 5.3-3.7 5.7-2.6 2.6-0.6h22.1v1.1l-21 0.5-4.2 1.1-7.3 3.6-4.7 4.2-3.7-3.1-3.2-2.6-6.3-2.7-23.5-1z"/>
			<path id="Layer" fill-rule="evenodd" class="s0" d="m948 13.8h21l6.3 2.1 5.2 3.2 3.7 3.1 5.2-4.7 5.3-2.6 5.7-1.1h20.5v1.1l-23.6 1-5.2 2.1-4.8 3.2-2.6 3.1-3.6-3.1-7.4-4.2-5.2-1.6-20.5-0.5z"/>
			<path id="Layer" fill-rule="evenodd" class="s0" d="m155.1 13.8h21l5.2 1.6 5.8 3.2 3.7 3.1 2.1-0.5 4.7-4.2 4.7-2.1 5.8-1.1h20.4l-0.5 1.1-23.6 1-6.3 2.7-4.2 3.1-2.6 2.6-4.7-4.2-8.4-4.2-2.6-0.5-20.5-0.5z"/>
			<path id="Layer" fill-rule="evenodd" class="s0" d="m983.7 104l2.1 1 3.6 3.7 6.3 3.2 2.6 0.5 14.2 0.5 7.3 0.5 1.1 1.1h-16.3l-9.4-1.1-6.3-3.1-3.7-3.2-1.5-1.5-1.1 2.1-5.7 3.6-5.8 2.6-2.6 0.6h-21.5l0.5-1.1 18.9-0.5 5.7-1 6.3-3.2 4.8-3.7z"/>
			<path id="Layer" fill-rule="evenodd" class="s0" d="m91.7 104l2.1 1 4.2 3.7 6.3 3.2 5.8 1 18.8 0.5 1.1 1.1h-21l-6.3-1.6-6.8-3.7-2.6-2.6-1.6-1-1 2.1-5.8 4.2-5.8 2-5.7 0.6h-17.3l0.5-1.1 7.3-0.5 14.7-0.5 5.8-2.1 5.2-3.7z"/>
			<path id="Layer" fill-rule="evenodd" class="s0" d="m191.3 104l3.7 3.1 5.2 3.7 5.2 1.6 14.7 0.5 7.3 0.5 1.1 1.1h-15.7l-7.9-0.6-5.8-2-4.7-3.2-2.1-2.1-2.1 0.5-4.2 3.2-6.2 3.1-4.2 1.1h-21.5l0.5-1.1 18.9-0.5 5.7-1 7.4-3.7z"/>
			<path id="Layer" fill-rule="evenodd" class="s0" d="m884.6 104l4.2 3.1 5.8 3.7 4.2 1.6 4.2 0.5 18.8 0.5 0.6 1.1h-20.5l-6.3-1.6-6.8-3.7-4.2-3.1-4.2 4.2-5.2 2.6-3.7 1-5.7 0.6h-17.3l0.5-1.1 7.3-0.5 14.7-0.5 5.2-1.6 4.8-3.1z"/>
			<path id="Layer" fill-rule="evenodd" class="s0" d="m56.1 13.8h19.4l6.3 1.1 5.2 2.6 4.7 4.2 2.1-1 7.3-4.8 6.3-2.1h22.6l-1.1 1.1-20.4 0.5-4.2 1.1-6.3 3.1-4.7 3.7h-2.1l-4.7-4.2-5.3-2.6-2.1-0.6-23-1z"/>
			<path id="Layer" fill-rule="evenodd" class="s51" d="m914.5 55.3h4.2l2.6 1 0.5 2.1-3.6 1-1.6 1.6 3.7 2.1 1.5 0.5-0.5 1.6-2.1 1.1-4.2 0.5-2.6-1.1-0.5-0.5-0.5-5.8-0.6-2.6z"/>
			<path id="Layer" fill-rule="evenodd" class="s52" d="m1017.7 64.7l4.2 3.1 2.7 3.2-0.6 2.1-2.6 1.5-2.6-1-4.7-4.2-1.6-1.6z"/>
			<path id="Layer" fill-rule="evenodd" class="s53" d="m850.6 65.2l2.6 0.5 3.7 2.1-2.1 2.1-4.2 3.7-1.1 1-2.6-0.5-2.6-2.6 4.7-5.2z"/>
			<path id="Layer" fill-rule="evenodd" class="s54" d="m57.6 65.2l2.7 0.5 3.6 1.6-1 2.1-4.2 3.1-2.1 2.1-2.1-0.5-2.6-1.6 0.5-2.1 3.2-3.6z"/>
			<path id="Layer" fill-rule="evenodd" class="s55" d="m224.3 65.2l2.6 0.5 3.7 3.7 1.6 2.6-3.7 2.6-2.1-1-5.2-4.2-1.6-1.6z"/>
			<path id="Layer" fill-rule="evenodd" class="s0" d="m267.8 16.5l8.4 2.6 5.7 0.5 5.8-1v1l-5.2 1.6h-4.7l-6.9-2.1-2.1-0.5-0.5 1v5.8l2.1 3.1 4.2 2.6 1.1 1.1-4.2 4.2-1.1 1.6h-1l1-2.7 2.1-2.1v-1l-4.2-3.2-1.5-2.6-0.6-5.2z"/>
			<path id="Layer" fill-rule="evenodd" class="s56" d="m197 95.1l7.4 3.6 4.2 1.1-0.5 2.6-1.1 1.1h-5.2l-3.2-1.6-1.6-3.2-0.5-3.1z"/>
			<path id="Layer" fill-rule="evenodd" class="s56" d="m86.5 95.1l1 1-1.6 4.7-2.6 2.1-1.5 0.6h-4.8l-1.5-1.6-0.6-1.6 4.2-1.6z"/>
			<path id="Layer" fill-rule="evenodd" class="s57" d="m989.4 95.1l7.9 3.6 4.2 1.6-1.1 2.6-0.5 0.6h-5.2l-3.2-1.6-1.5-2.6z"/>
			<path id="Layer" fill-rule="evenodd" class="s56" d="m878.9 95.1h1l-0.5 4.2-2.1 3.1-2.6 1.1h-4.7l-2.1-2.1 0.5-1.6 6.3-2.1z"/>
			<path id="Layer" fill-rule="evenodd" class="s58" d="m994.2 24.9h5.7l1.6 2.1v1l-6.8 2.6-5.3 2.6 0.6-4.2 1.5-2.6z"/>
			<path id="Layer" fill-rule="evenodd" class="s56" d="m201.8 24.9h5.2l1.6 1.5-0.5 2.1-6.3 2.1-3.7 2.1h-1.6l1.1-4.7 2.6-2.6z"/>
			<path id="Layer" fill-rule="evenodd" class="s59" d="m870 24.9h5.2l3.1 2.1 1.6 4.1v1.6l-2.1-0.5-5.8-2.6-4.1-1.6 1-2.6z"/>
			<path id="Layer" fill-rule="evenodd" class="s60" d="m77 24.9h5.3l2.6 1.5 1.6 2.1 0.5 4.2-3.1-1-4.2-2.1-4.8-1.6 1.1-2.6z"/>
			<path id="Layer" fill-rule="evenodd" class="s61" d="m565.5 73.1l3.1 0.5 2.6 2.6-1 2.6-3.2 2.1-3.6 0.6-1.1-1.1 0.5-3.7 2.1-3.1z"/>
			<path id="Layer" fill-rule="evenodd" class="s62" d="m115.3 57.9l1.6 0.5 1 2.6v5.8l-0.5 2.6-2.6 0.5-1.6-2.1v-7.3l1-2.1z"/>
			<path id="Layer" fill-rule="evenodd" class="s63" d="m907.2 58.4l2.6 0.5 1 2.6v5.3l-1 2.6-2.6 0.5-1.1-1.5v-8.4z"/>
			<path id="Layer" fill-rule="evenodd" class="s16" d="m960.1 58.4l2.6 0.5 0.5 1.1v8.4l-1 1.5-2.6-0.5-0.6-0.5v-9.5z"/>
			<path id="Layer" fill-rule="evenodd" class="s17" d="m167.2 58.4l2.6 0.5 0.5 1.1v8.9l-1 1-2.6-0.5-0.6-0.5v-9.5z"/>
			<path id="Layer" fill-rule="evenodd" class="s0" d="m120.5 38.5l4.8 1 3.6 2.6 2.6 5.3v5.8l-2.1 5.7-1.5 0.5 0.5-2.6 1-3.1v-6.8l-2.6-4.2-4.2-2.1-2.6-1.1z"/>
			<path id="Layer" fill-rule="evenodd" class="s0" d="m127.9 68.9l1.5 0.5 2.1 5.2v6.3l-2.1 4.2-3.6 3.2-3.7 1.5-2.1-0.5 0.5-1 4.8-1.6 2.6-2.1 1.5-3.1v-6.9z"/>
			<path id="Layer" fill-rule="evenodd" class="s0" d="m161.9 38.5l2.1 0.5-0.5 1.1-5.2 1.5-3.2 3.7-1 2.6v3.7l1.5 5.7-0.5 2.1-1.5-2.1-1.1-3.1v-7.9l2.6-4.2 2.6-2z"/>
			<path id="Layer" fill-rule="evenodd" class="s0" d="m155.1 68.9l0.5 2.1-1.5 5.2v3.7l1.5 4.2 3.2 2.6 5.2 2.1-0.5 1-4.7-1-4.2-3.2-2.1-3.6v-7.4l1.6-4.7z"/>
			<path id="Layer" fill-rule="evenodd" class="s0" d="m959.6 87.2h1l2.1 6.8 2.6 2.7 2.7 1 5.2 0.5v1.1h-5.8l-4.2-2.1-2.6-3.7-1-3.7-2.7 2.1-2 4.2h-1.1l0.5-2.6 2.1-3.1z"/>
			<path id="Layer" fill-rule="evenodd" class="s0" d="m908.7 87.2l2.1 1.1 3.7 4.2 1.6 3.6 0.5 3.7v2.6l0.5 1.6-3.1 0.5 0.5-2.1v-5.7l-2.1-4.2-2.6-2.7h-1.1z"/>
			<path id="Layer" fill-rule="evenodd" class="s64" d="m955.4 55.3h4.2l2.6 1-2.1 1-2.6 2.7-2.1-0.6-3.7-1 1.1-2.1z"/>
			<path id="Layer" fill-rule="evenodd" class="s0" d="m990 71.5v1.6l-4.2 5.7-2.6 4.8h-1.1l0.5-2.7v-2.1l-2.6-2.1-1-2.6 2.1 1.1 2.6 2.6h1l2.1-3.2z"/>
			<path id="Layer" fill-rule="evenodd" class="s0" d="m1014.6 28l3.1 0.5 5.3 3.2 1.6 1.5 2-1 2.7-2.6h1l-1 2.1-3.2 3.6-2.1-0.5-3.6-3.1-5.8-2.7z"/>
			<path id="Layer" fill-rule="evenodd" class="s65" d="m1072.8 107.1h0.5v20.5l-1.6-0.6 0.5-19.3z"/>
			<path id="Layer" fill-rule="evenodd" class="s66" d="m1054.4 92.5h1.1v9.4l-1.6-1.6-2.6-3.1-1.1-0.5v-1.1z"/>
			<path id="Layer" fill-rule="evenodd" class="s67" d="m21.5 92.5l4.7 3.1v1.1l-3.1 2.6-1.6 2.1z"/>
			<path id="Layer" fill-rule="evenodd" class="s68" d="m21.5 27l2.1 2.6 2.6 2.6-4.7 3.1z"/>
			<path id="Layer" fill-rule="evenodd" class="s69" d="m956.4 61.5h1.1v4.8l-1.6 0.5-4.2-2.1v-1.1l4.2-1.5z"/>
			<path id="Layer" fill-rule="evenodd" class="s70" d="m1054.4 27h0.5l0.6 8.3-4.7-2.6 1-2.1 2.1-2.6z"/>
			<path id="Layer" fill-rule="evenodd" class="s71" d="m527.7 82.5h4.2l2.6 1.6-0.5 1.5-3.6-0.5z"/>
			<path id="Layer" fill-rule="evenodd" class="s72" d="m636.2 30.6h1.6l0.5 3.2-0.5 1-2.1-0.5-0.5-2.6z"/>
			<path id="Layer" fill-rule="evenodd" class="s0" d="m51.4 106.6h1l-1 2.1-2.1 2.1h-1.1l1.1-2.1z"/>
			<path id="Layer" fill-rule="evenodd" class="s73" d="m953.8 67.8l3.7 0.6 1.5 2h-1l-0.5 1.1-2.1-2.1z"/>
		</g>
	</g>
</svg>