<svg version="1.2" xmlns="http://www.w3.org/2000/svg" viewBox="0 0 1921 1920" width="512" height="512">
	<title>2izaR3kcP06UonY7wK7Xz5mgkEi-svg</title>
	<style>
		.s0 { fill: #005142 } 
	</style>
	<g id="Layer 1">
		<path id="Layer" class="s0" d="m956 0l5 1 6 7 9 14 10 9 9 9 14 11 13 10 22 14 22 12 22 11 32 14 30 12 41 16 51 20 38 14 37 13 36 12 41 13 63 18 100 30 42 13 41 14 34 13 29 13 28 14 27 16 9 6-2 5-12 11-8 7-6 9-11 23-8 24-5 23-2 15-1 13v31l2 23 5 30 6 24 9 27 13 29 12 31 12 36 10 35 8 35 7 38 5 37 4 46 1 25v50l-2 39-3 33-4 32-6 36-9 45-10 36-14 41-19 51-15 44-7 35-3 24-1 15v25l2 23 5 26 7 21 8 17 9 14 8 10 7 8 8 5 1 1v6l-4 5-23 14-30 15-20 9-34 14-29 11-50 17-59 18-105 30-50 15-49 16-53 21-53 20-38 15-29 12-29 13-22 11-23 13-18 11-16 11-16 12-13 11-8 7-7 7-8 7-6 7-7 10-6 5-6-1-11-12-7-8-14-14-11-9-15-12-17-12-21-13-29-16-24-12-29-13-85-36-28-12-37-14-37-13-43-14-57-17-68-19-74-22-39-12-36-12-30-11-31-13-25-12-23-13-18-11-2-2 1-6 16-15 5-5 12-22 8-19 6-19 5-22 3-21 1-13v-35l-3-29-4-22-6-25-6-18-12-29-13-36-9-29-10-37-8-36-6-32-5-36-3-27-2-28-1-26v-51l2-36 4-40 5-34 6-33 11-49 9-30 11-30 18-47 12-36 6-23 3-15 3-26 1-15v-48l-3-24-5-21-6-17-8-17-8-12-7-10-10-6-8-5-2-2v-5l13-8 24-13 31-15 39-16 34-12 36-12 50-15 101-29 40-11 39-12 36-12 43-15 49-18 69-26 36-14 35-15 27-13 24-14 18-12 17-13 15-14 12-12 11-14zm-5 138l-14 3-10 4-12 8-12 12-7 10-6 13-4 16v19l3 12 5 12 7 11 9 10 9 7 12 6 14 4 6 1h19l14-3 13-5 10-7 10-9 9-14 5-10 4-16v-15l-3-15-5-12-7-12-11-12-10-8-15-7-13-3zm-153 73l-62 23-62 22-85 29-58 19-57 18-55 17-74 22-46 14-11 5-6 5v7l4 8 6 24 4 24 2 19v48l-3 30-3 19v5l3-3 12-19 14-20 14-17 13-13 13-10 17-10 17-6 19-5 26-4 41-2 6-22 8-20 11-21 8-12 9-12 12-14 15-15 11-9 13-10 17-11 16-9 16-8 24-10 29-15 25-12 27-11 33-12 33-10 5-2 1-14zm328 2v13l9 3 28 8 25 9 31 13 36 17 22 11 19 10 28 15 33 17 16 13 8 7 13 13 9 11 11 15 12 21 9 21 6 22 2 5 30 1 21 3 24 6 18 7 17 8 19 12 13 10 13 12 11 12 12 17 6 10h1l-1-17-1-10-1-30 1-25 3-27 4-23 6-25 3-10v-3l-37-14-39-14-51-17-72-22-71-21-66-20-65-21-37-13-42-16-34-14zm-304 95l-20 5-32 12-42 18-28 13-28 14-22 12-26 15-15 8-10 8-9 9-9 14-8 17-6 21-4 22-3 21-1 27-3 7-4 2-32-2-40-3h-31l-20 3-16 5-15 8-8 10-20 30-13 22-15 28-13 28-15 38-11 33-10 36-8 37-5 28-4 31-2 22-1 19v62l2 31 4 34 6 36 6 28 7 27 10 33 13 35 12 28 15 31 13 23 10 17 13 20 14 20 10 6 13 5 19 4 11 1h19l28-2 32-3 26-1 1 39 3 25 5 22 8 21 8 14 8 10 14 11 16 11 18 11 18 10 23 12 29 14 36 16 29 14 20 8 19 5 6 1h23l16-8 11-7 14-11 13-12 7-8 9-10 13-17 15-20 13-18 7-9v-2l4 1 13 18 12 17 11 14 9 11 12 14 8 8 7 8 12 11 15 11 15 7 11 3h16l11-3 30-11 29-12 29-13 25-12 30-15 23-13 24-14 11-6 10-9 7-7 8-13 6-12 6-19 5-26 3-24 2-23 3-8 4-3 9-1 7 2 43 3h42l16-2 17-5 10-4 13-8 22-33 17-29 17-33 13-29 14-36 11-34 8-29 7-31 6-35 4-31 2-25 1-20v-57l-3-40-5-37-6-33-9-37-9-31-12-35-12-30-11-24-12-24-14-24-11-18-12-17-9-12-9-6-15-6-17-4-17-2h-24l-70 6h-8l-4-22-6-49-4-20-6-18-7-14-9-10-12-10-17-12-24-14-29-15-34-16-25-11-29-14-19-8-21-7-9-2-9-1h-15l-10 3-16 9-14 10-15 13-11 11-7 8-11 13-9 12-13 18-12 17-4 5-4-2-6-7-10-15-12-16-14-17-9-11-11-12-9-10-14-12-18-11-14-5-10-2zm806 247l1 2zm4 792l1 2zm-1 2l-14 22-11 16-10 13-9 10-5 6-11 9-13 9-14 7-25 8-18 4-13 2-44 3-5 19-6 16-11 23-9 14-9 12-9 11-13 14-8 7-13 11-17 12-15 9-23 12-29 12-39 20-27 13-28 11-24 8-25 6-10 2-1 8 2 7 7 1 12-6 11-5 35-14 29-11 42-15 73-24 65-20 66-20 58-18 73-24 36-13 13-5-1-5-8-25-5-22-3-20-1-14v-48l2-21 3-21v-6zm-1339 4l2 26v47l-3 31-6 34-9 36v4l20 8 42 15 52 17 70 21 79 23 73 22 58 19 41 15 35 14 30 13 22 10 3-1v-13l-4-5-6-2-14-2-26-8-24-9-29-13-19-9-19-10-28-15-18-10-24-13-19-10-11-7-13-11-10-9-9-9-9-11-10-13-11-18-12-25-8-26-25-1-23-3-21-5-22-8-20-10-18-12-10-8-12-11-8-8-10-13-9-14-7-13zm660 285l-11 2-14 5-13 9-12 12-8 13-5 12-3 13v19l3 12 5 12 6 10 9 10 7 6 12 7 11 4 10 2h22l14-3 12-5 13-9 8-8 8-13 5-10 3-10 1-6v-15l-3-15-5-12-7-12-12-13-11-8-13-6-13-3z"/>
	</g>
</svg>