<svg version="1.2" xmlns="http://www.w3.org/2000/svg" viewBox="0 0 500 500" width="500" height="500">
	<title>4191983</title>
	<defs>
		<linearGradient id="g1" x2="1" gradientUnits="userSpaceOnUse" gradientTransform="matrix(0,426.209,-80.335,0,258.882,58.782)">
			<stop offset="0" stop-color="#c8da36"/>
			<stop offset="1" stop-color="#6eab12"/>
		</linearGradient>
		<linearGradient id="g2" x2="1" gradientUnits="userSpaceOnUse" gradientTransform="matrix(0,426.211,-681.816,0,541.788,58.781)">
			<stop offset="0" stop-color="#c8da36"/>
			<stop offset="1" stop-color="#6eab12"/>
		</linearGradient>
		<linearGradient id="g3" x2="1" gradientUnits="userSpaceOnUse" gradientTransform="matrix(0,426.211,-405.357,0,258.084,58.781)">
			<stop offset="0" stop-color="#c8da36"/>
			<stop offset="1" stop-color="#6eab12"/>
		</linearGradient>
		<linearGradient id="g4" x2="1" gradientUnits="userSpaceOnUse" gradientTransform="matrix(0,426.208,-1824.702,0,671.043,58.782)">
			<stop offset="0" stop-color="#c8da36"/>
			<stop offset="1" stop-color="#6eab12"/>
		</linearGradient>
		<linearGradient id="g5" x2="1" gradientUnits="userSpaceOnUse" gradientTransform="matrix(0,426.208,-1824.693,0,1000.009,58.782)">
			<stop offset="0" stop-color="#c8da36"/>
			<stop offset="1" stop-color="#6eab12"/>
		</linearGradient>
		<linearGradient id="g6" x2="1" gradientUnits="userSpaceOnUse" gradientTransform="matrix(0,426.205,-426.185,0,89.088,58.782)">
			<stop offset="0" stop-color="#c8da36"/>
			<stop offset="1" stop-color="#6eab12"/>
		</linearGradient>
		<linearGradient id="g7" x2="1" gradientUnits="userSpaceOnUse" gradientTransform="matrix(0,426.205,-426.185,0,418.037,58.782)">
			<stop offset="0" stop-color="#c8da36"/>
			<stop offset="1" stop-color="#6eab12"/>
		</linearGradient>
		<linearGradient id="g8" x2="1" gradientUnits="userSpaceOnUse" gradientTransform="matrix(0,-230.728,213.668,0,140.832,243.388)">
			<stop offset=".005" stop-color="#6eab12" stop-opacity="0"/>
			<stop offset="1" stop-color="#c8da36"/>
		</linearGradient>
	</defs>
	<style>
		.s0 { fill: url(#g1) } 
		.s1 { fill: url(#g2) } 
		.s2 { fill: url(#g3) } 
		.s3 { fill: url(#g4) } 
		.s4 { fill: url(#g5) } 
		.s5 { fill: url(#g6) } 
		.s6 { fill: url(#g7) } 
		.s7 { fill: url(#g8) } 
	</style>
	<g id="BACKGROUND">
		<g id="BACKGROUND 2 ">
			<g id="&lt;Group&gt;">
				<g id="&lt;Group&gt;">
				</g>
			</g>
		</g>
	</g>
	<g id="OBJECTS">
		<g id="&lt;Group&gt;">
			<g id="&lt;Group&gt;">
			</g>
			<g id="&lt;Group&gt;">
				<g id="&lt;Group&gt;">
					<path id="&lt;Path&gt;" fill-rule="evenodd" class="s0" d="m274.5 473.4c-0.2-0.8 0.3-1.7 1.1-1.9l224.4-67.5-0.9-3.5-226.1 67.1 224.6-69.2-11.1-6.5c-14.9 3.1-45.3 9.3-81.5 16-49.8 9.1-124.3 15.9-155 54-30.7-38.1-105.2-44.9-155-54-36.2-6.7-66.6-12.9-81.5-16l-11.1 6.5 224.6 69.2-226.1-67.1-0.9 3.5 224.4 67.5c0.8 0.2 1.3 1.1 1.1 1.9l-1.7 6.1c-0.9 3.4 1.6 6.6 5 6.6h21.2 21.2c3.4 0 5.9-3.2 5-6.6z"/>
				</g>
				<g id="&lt;Group&gt;">
					<path id="&lt;Path&gt;" fill-rule="evenodd" class="s1" d="m346.6 290.8q-0.2 0-0.4-0.1h-47.3l43.2-2.6c4.1-0.3 7.8-2.6 9.7-6.2 5.5-10.4 8.9-23.5 6.7-39.5-5.6-39.4-71.7-78.8-98.4-100.3 0-0.3 0.1-0.6 0.1-1 0-3.2-1.6-6.1-3.9-7.9-2.1-1.7-3.5-4.1-3.7-6.8l-1-10.6c1.2-0.5 2-1.8 2-3.2q0-0.1 0-0.2 1.6-0.3 3.3-0.7c12.1-3.3 19.8-14.7 18.9-26.8q0 0 0 0.1 0 0 0 0-0.1 0.3-0.1 0.7c-1.8 8.3-8.4 15.3-17.5 16.9-10.5 1.8-21-4.5-24.4-14.6-3.6-10.9 2-22.5 12.2-26.8q-0.1 0-0.2 0c-14 2.3-23.7 15.9-21.3 29.8 2 11.7 11.2 19.8 21.9 21.3q0 0.2 0 0.3c0 1.4 0.8 2.6 2 3.2l-1 10.6c-0.2 2.7-1.6 5.1-3.7 6.8-2.3 1.8-3.9 4.7-3.9 7.9 0 0.4 0.1 0.7 0.1 1-26.7 21.5-92.8 60.9-98.4 100.3-2.2 16 1.2 29.1 6.7 39.5 1.9 3.6 5.6 5.9 9.7 6.2l43.2 2.6h-47.3q-0.2 0.1-0.4 0.1c-10.2 2.3-17.4 11.4-17.4 21.9v94.7q6.1 1 12.3 2.2v-38.4c0-15.4 11.7-21.9 16.8-24.2 5-2.3 5.8-5.2 5.8-5.2 0 0 0.7 2.9 5.8 5.2 5 2.3 16.7 8.8 16.7 24.2v49.4q7.7 2.4 14.9 5.4v-55.8c0-28.5 21.7-40.4 31-44.7 9.3-4.2 10.7-9.7 10.7-9.7 0 0 1.4 5.5 10.7 9.7 9.3 4.3 31 16.2 31 44.7v55.8q7.2-3 14.9-5.4v-49.4c0-15.4 11.7-21.9 16.7-24.2 5.1-2.3 5.8-5.2 5.8-5.2 0 0 0.8 2.9 5.8 5.2 5.1 2.3 16.8 8.8 16.8 24.2v38.4q6.2-1.2 12.3-2.2v-94.7c0-10.5-7.2-19.6-17.4-21.9z"/>
					<path id="&lt;Path&gt;" fill-rule="evenodd" class="s2" d="m245.5 86.1l-1 6.1 5.5-2.9 5.5 2.9-1-6.1 4.4-4.4-6.1-0.9-2.8-5.6-2.8 5.6-6.1 0.9z"/>
					<path id="&lt;Compound Path&gt;" fill-rule="evenodd" class="s3" d="m113.9 225.3h-3.8v-57.6h-0.2q0.6-0.4 0.9-1c1.4-2.6 2.2-5.9 1.7-9.8-1.7-11.6-24.3-23.2-27-27.4-2.7 4.2-25.3 15.8-26.9 27.4-0.6 3.9 0.3 7.2 1.6 9.8q0.4 0.6 0.9 1h-0.2v57.6h-3.8c-1.9 0-3.5 1.6-3.5 3.6v18.3c0 3.9 2.1 7.5 5.4 9.4l1.9 1.1v136.2c10.5 2.1 22 4.2 34.1 6.5q7.3 1.3 15.1 2.6v-145.3l1.9-1.1c3.4-1.9 5.5-5.5 5.5-9.4v-18.3c0-2-1.6-3.6-3.6-3.6zm-38.7 0h-8.6v-40.8c0-2.4 1.9-4.3 4.3-4.3 1.2 0 2.3 0.5 3.1 1.3 0.7 0.7 1.2 1.8 1.2 3zm14.6 0h-8.6v-40.8c0-2.4 2-4.3 4.3-4.3 2.4 0 4.3 1.9 4.3 4.3zm14.6 0h-8.5v-40.9c0-2.3 1.9-4.3 4.2-4.3 1.2 0 2.3 0.5 3.1 1.3 0.8 0.8 1.2 1.8 1.2 3z"/>
					<path id="&lt;Compound Path&gt;" fill-rule="evenodd" class="s4" d="m442.9 225.3h-3.9v-57.6h-0.1q0.5-0.4 0.9-1c1.3-2.6 2.2-5.9 1.6-9.8-1.6-11.6-24.2-23.2-26.9-27.4-2.7 4.2-25.3 15.8-27 27.4-0.5 3.9 0.3 7.2 1.7 9.8q0.3 0.6 0.9 1h-0.2v57.6h-3.8c-2 0-3.6 1.6-3.6 3.6v18.3c0 3.9 2.1 7.5 5.5 9.4l1.9 1.1v145.3q7.8-1.3 15.1-2.6c12.1-2.3 23.6-4.4 34.1-6.5v-136.2l1.9-1.1c3.3-1.9 5.4-5.5 5.4-9.4v-18.3c0-2-1.6-3.6-3.5-3.6zm-38.7 0h-8.6v-40.8c0-2.4 1.9-4.3 4.3-4.3 1.2 0 2.2 0.5 3 1.3 0.8 0.7 1.3 1.8 1.3 3zm14.6 0h-8.6v-40.8c0-2.4 1.9-4.3 4.3-4.3 2.3 0 4.3 1.9 4.3 4.3zm14.6 0h-8.6v-40.9c0-2.3 1.9-4.3 4.3-4.3 1.2 0 2.3 0.5 3 1.3 0.8 0.8 1.3 1.8 1.3 3z"/>
					<path id="&lt;Path&gt;" fill-rule="evenodd" class="s5" d="m85.5 127.5c-1.9 0-3.5-1.6-3.5-3.6 0-1.9 1.6-3.5 3.5-3.5 2 0 3.6 1.6 3.6 3.5 0 2-1.6 3.6-3.6 3.6z"/>
					<path id="&lt;Path&gt;" fill-rule="evenodd" class="s6" d="m414.5 127.5c-2 0-3.6-1.6-3.6-3.6 0-1.9 1.6-3.5 3.6-3.5 1.9 0 3.5 1.6 3.5 3.5 0 2-1.6 3.6-3.5 3.6z"/>
					<path id="&lt;Path&gt;" fill-rule="evenodd" class="s7" d="m377.3 248.8h-13.3v-47c0-51.5-24-100.6-64.1-131.2q-2-1.5-4-3c-3.2-2.3-6.6-4.7-10.3-7.2-10.7-7.3-23.7-16.3-35.6-28-11.9 11.7-24.9 20.7-35.6 28-3.7 2.5-7.1 4.9-10.3 7.2q-2 1.5-4 3c-40.1 30.6-64.1 79.7-64.1 131.2v47h-13.3v-47c0-55.7 25.9-108.7 69.4-141.8q2.1-1.5 4.2-3.1c3.3-2.4 6.8-4.8 10.6-7.4 12.3-8.4 26.2-18 38.2-31.1l4.9-5.4 4.9 5.4c12 13.1 25.9 22.7 38.2 31.1 3.8 2.6 7.3 5 10.6 7.4q2.1 1.6 4.2 3.1c43.5 33.1 69.4 86.1 69.4 141.8z"/>
				</g>
			</g>
		</g>
		<g id="&lt;Group&gt;">
			<g id="&lt;Group&gt;">
				<g id="&lt;Group&gt;">
				</g>
			</g>
			<g id="&lt;Group&gt;">
				<g id="&lt;Group&gt;">
				</g>
				<g id="&lt;Group&gt;">
				</g>
			</g>
		</g>
	</g>
</svg>