<svg version="1.2" xmlns="http://www.w3.org/2000/svg" viewBox="0 0 800 800" width="512" height="512">
<title>template</title>
<style>
.s0 { fill: #000000 } 
</style>
<g id="Layer 1">
<g id="ghost">
</g>
<path id="&lt;Path&gt;" fill-rule="evenodd" class="s0" d="m519.1 724c0 0 12.9-39.8 8.2-77.3-4.7-37.5-35.2-72.6-78.5-89-27.6-10.5-39.5-23.7-44.6-32v-14.4c3.8-1.4 6.5-5 6.5-9.3 0-4.7-3.3-8.6-7.6-9.7v-7.4c4.9-0.5 9.1-3.4 11.4-7.5-2.1 1.1-4.5 1.7-7 1.7-8.1 0-14.7-6.5-14.7-14.6 0-2.5 0.7-4.9 1.8-7-4.5 2.5-7.6 7.3-7.6 12.9 0 6.9 4.9 12.8 11.4 14.2v7.7c-4.4 1.1-7.6 5-7.6 9.7 0 4.3 2.7 7.9 6.4 9.3v14.4c-5 8.3-16.9 21.5-44.5 32-43.4 16.4-73.8 51.5-78.5 89-4.7 37.5 8.2 77.3 8.2 77.3-5.2 0-9.4 4.2-9.4 9.4 0 5.2 4.2 9.4 9.4 9.4h0.6v165.2h235.5v-165.2h0.6c5.2 0 9.4-4.2 9.4-9.4 0-5.2-4.2-9.4-9.4-9.4z"/>
<path id="&lt;Path&gt;" fill-rule="evenodd" class="s0" d="m678 691.7c-2.8-19-21.1-36.8-47.1-45.1-26-8.4-28.8-20.3-28.8-20.3 0 0-2.8 11.9-28.8 20.3-26 8.3-44.2 26.1-47 45.1-2.8 19 4.9 39.2 4.9 39.2h70.9 71c0 0 7.7-20.2 4.9-39.2z"/>
<path id="&lt;Path&gt;" fill-rule="evenodd" class="s0" d="m677.4 740.4h-150.6c-3.2 0-5.8-2.6-5.8-5.8 0-3.3 2.6-5.9 5.8-5.9h150.6c3.2 0 5.9 2.6 5.9 5.9 0 3.2-2.7 5.8-5.9 5.8z"/>
<path id="&lt;Path&gt;" fill-rule="evenodd" class="s0" d="m600.3 622.2h3.6v8.9h-3.6z"/>
<path id="&lt;Path&gt;" fill-rule="evenodd" class="s0" d="m600.9 607.9h2.4v8.9h-2.4z"/>
<path id="&lt;Path&gt;" fill-rule="evenodd" class="s0" d="m602.1 623.4c-2.8 0-5-2.3-5-5.1 0-2.8 2.2-5 5-5 2.8 0 5.1 2.2 5.1 5 0 2.8-2.3 5.1-5.1 5.1z"/>
<path id="&lt;Path&gt;" fill-rule="evenodd" class="s0" d="m609.1 605.8c-1.3 2.3-3.7 3.9-6.5 3.9-4.1 0-7.5-3.3-7.5-7.4 0-2.8 1.6-5.3 3.9-6.5-0.6 1-0.9 2.2-0.9 3.5 0 4.1 3.3 7.4 7.4 7.4 1.3 0 2.5-0.3 3.6-0.9z"/>
<path id="&lt;Path&gt;" fill-rule="evenodd" class="s0" d="m687.1 908h-169.9v-140.2c0-15.1 12.2-27.4 27.3-27.4h119.6c12.7 0 23 10.3 23 23z"/>
<path id="&lt;Path&gt;" fill-rule="evenodd" class="s0" d="m274.9 691.7c-2.8-19-21.1-36.8-47.1-45.1-25.9-8.4-28.8-20.3-28.8-20.3 0 0-2.8 11.9-28.7 20.3-26 8.3-44.3 26.1-47.1 45.1-2.8 19 4.9 39.2 4.9 39.2h70.9 71c0 0 7.7-20.2 4.9-39.2z"/>
<path id="&lt;Path&gt;" fill-rule="evenodd" class="s0" d="m274.3 740.4h-150.5c-3.3 0-5.9-2.6-5.9-5.8 0-3.3 2.6-5.9 5.9-5.9h150.5c3.3 0 5.9 2.6 5.9 5.9 0 3.2-2.6 5.8-5.9 5.8z"/>
<path id="&lt;Path&gt;" fill-rule="evenodd" class="s0" d="m197.3 622.2h3.5v8.9h-3.5z"/>
<path id="&lt;Path&gt;" fill-rule="evenodd" class="s0" d="m197.9 607.9h2.3v8.9h-2.3z"/>
<path id="&lt;Path&gt;" fill-rule="evenodd" class="s0" d="m199 623.4c-2.7 0-5-2.3-5-5.1 0-2.8 2.3-5 5-5 2.8 0 5.1 2.2 5.1 5 0 2.8-2.3 5.1-5.1 5.1z"/>
<path id="&lt;Path&gt;" fill-rule="evenodd" class="s0" d="m206 605.8c-1.2 2.3-3.7 3.9-6.5 3.9-4.1 0-7.4-3.3-7.4-7.4 0-2.8 1.5-5.3 3.8-6.5-0.5 1-0.9 2.2-0.9 3.5 0 4.1 3.4 7.4 7.5 7.4 1.3 0 2.5-0.3 3.5-0.9z"/>
<path id="&lt;Path&gt;" fill-rule="evenodd" class="s0" d="m284 908h-169.9v-140.2c0-15.1 12.2-27.4 27.3-27.4h119.6c12.7 0 23 10.3 23 23z"/>
<path id="&lt;Path&gt;" fill-rule="evenodd" class="s0" d="m786.3 763.4c2-0.9 3.4-2.9 3.1-5.3-0.2-2.7-2.7-4.8-5.4-4.8h-1.1v-108.1h2.4c2.7 0 5.2-2 5.3-4.8 0.2-2.3-1.3-4.3-3.4-5.1 1.7-4.7 6.3-19 4.8-32.6-1.7-16.6-15.4-32.1-31.4-39.4-10.7-4.8-15-10.9-16.8-14.5v-5.4c1.8-0.5 3-2 3-3.9 0-2.1-1.5-3.8-3.5-4.1v-4c1.4-0.1 2.7-0.9 3.3-2.1-0.7 0.3-1.5 0.5-2.3 0.5-2-0.2-3.6-1.8-3.8-3.8 0-0.9 0.1-1.6 0.5-2.3-1.3 0.7-2.1 2-2.1 3.6 0 2 1.4 3.6 3.2 4v4.1c-1.9 0.3-3.5 2-3.5 4.1 0 1.9 1.3 3.4 3 3.9v5.4c-1.7 3.6-6.1 9.7-16.7 14.5-16.1 7.3-29.7 22.8-31.5 39.4-1.4 13.6 3.1 27.9 4.8 32.6-2 0.8-3.5 2.8-3.4 5.1 0.2 2.8 2.6 4.8 5.4 4.8h2.4v108.1h-1.1c-2.7 0-5.2 2.1-5.5 4.8-0.2 2.4 1.2 4.4 3.1 5.3h-1.8c-6.5 0-11.8 5.3-11.8 11.9v132.7h114.5v-130.9c0-7.6-6.1-13.7-13.7-13.7z"/>
<path id="&lt;Path&gt;" fill-rule="evenodd" class="s0" d="m100.9 763.4c1.9-0.9 3.3-2.9 3.1-5.3-0.3-2.7-2.8-4.8-5.5-4.8h-1.1v-108.1h2.4c2.7 0 5.2-2 5.4-4.8 0.1-2.3-1.4-4.3-3.4-5.1 1.7-4.7 6.2-19 4.8-32.6-1.8-16.6-15.4-32.1-31.5-39.4-10.6-4.8-15-10.9-16.7-14.5v-5.4c1.7-0.5 3-2 3-3.9 0-2.1-1.6-3.8-3.5-4.1v-4c1.4-0.1 2.6-0.9 3.2-2.1-0.6 0.3-1.4 0.5-2.3 0.5-1.9-0.2-3.6-1.8-3.7-3.8-0.1-0.9 0.1-1.6 0.4-2.3-1.2 0.7-2.1 2-2.1 3.6 0 2 1.4 3.6 3.3 4v4.1c-2 0.3-3.5 2-3.5 4.1 0 1.9 1.2 3.4 3 3.9v5.4c-1.8 3.6-6.1 9.7-16.8 14.5-16 7.3-29.7 22.8-31.4 39.4-1.5 13.6 3.1 27.9 4.8 32.6-2.1 0.8-3.6 2.8-3.4 5.1 0.1 2.8 2.6 4.8 5.3 4.8h2.4v108.1h-1.1c-2.7 0-5.2 2.1-5.4 4.8-0.3 2.4 1.1 4.4 3.1 5.3h-1.8c-6.6 0-11.9 5.3-11.9 11.9v132.7h114.5v-130.9c0-7.6-6.1-13.7-13.6-13.7z"/>
</g>
</svg>